<?xml version="1.0" encoding="UTF-8" standalone="no"?>
<!-- Created with Inkscape (http://www.inkscape.org/) -->

<svg
   xmlns:dc="http://purl.org/dc/elements/1.1/"
   xmlns:cc="http://creativecommons.org/ns#"
   xmlns:rdf="http://www.w3.org/1999/02/22-rdf-syntax-ns#"
   xmlns:svg="http://www.w3.org/2000/svg"
   xmlns="http://www.w3.org/2000/svg"
   xmlns:sodipodi="http://sodipodi.sourceforge.net/DTD/sodipodi-0.dtd"
   xmlns:inkscape="http://www.inkscape.org/namespaces/inkscape"
   id="svg2876"
   version="1.1"
   inkscape:version="0.47pre1 r21720"
   width="468.16156"
   height="688.34125"
   sodipodi:docname="heart5.svg"
   inkscape:output_extension="org.inkscape.output.svg.inkscape">
  <metadata
     id="metadata2882">
    <rdf:RDF>
      <cc:Work
         rdf:about="">
        <dc:format>image/svg+xml</dc:format>
        <dc:type
           rdf:resource="http://purl.org/dc/dcmitype/StillImage" />
        <dc:title />
      </cc:Work>
    </rdf:RDF>
  </metadata>
  <defs
     id="defs2880">
    <inkscape:perspective
       sodipodi:type="inkscape:persp3d"
       inkscape:vp_x="0 : 0.5 : 1"
       inkscape:vp_y="0 : 1000 : 0"
       inkscape:vp_z="1 : 0.5 : 1"
       inkscape:persp3d-origin="0.5 : 0.33333333 : 1"
       id="perspective2884" />
    <inkscape:perspective
       id="perspective3719"
       inkscape:persp3d-origin="0.5 : 0.33333333 : 1"
       inkscape:vp_z="1 : 0.5 : 1"
       inkscape:vp_y="0 : 1000 : 0"
       inkscape:vp_x="0 : 0.5 : 1"
       sodipodi:type="inkscape:persp3d" />
    <inkscape:perspective
       id="perspective2829"
       inkscape:persp3d-origin="0.5 : 0.33333333 : 1"
       inkscape:vp_z="1 : 0.5 : 1"
       inkscape:vp_y="0 : 1000 : 0"
       inkscape:vp_x="0 : 0.5 : 1"
       sodipodi:type="inkscape:persp3d" />
    <inkscape:perspective
       id="perspective2830"
       inkscape:persp3d-origin="0.5 : 0.33333333 : 1"
       inkscape:vp_z="1 : 0.5 : 1"
       inkscape:vp_y="0 : 1000 : 0"
       inkscape:vp_x="0 : 0.5 : 1"
       sodipodi:type="inkscape:persp3d" />
    <inkscape:perspective
       id="perspective3622"
       inkscape:persp3d-origin="0.5 : 0.33333333 : 1"
       inkscape:vp_z="1 : 0.5 : 1"
       inkscape:vp_y="0 : 1000 : 0"
       inkscape:vp_x="0 : 0.5 : 1"
       sodipodi:type="inkscape:persp3d" />
    <inkscape:perspective
       id="perspective3644"
       inkscape:persp3d-origin="0.5 : 0.33333333 : 1"
       inkscape:vp_z="1 : 0.5 : 1"
       inkscape:vp_y="0 : 1000 : 0"
       inkscape:vp_x="0 : 0.5 : 1"
       sodipodi:type="inkscape:persp3d" />
    <inkscape:perspective
       id="perspective2835"
       inkscape:persp3d-origin="0.5 : 0.33333333 : 1"
       inkscape:vp_z="1 : 0.5 : 1"
       inkscape:vp_y="0 : 1000 : 0"
       inkscape:vp_x="0 : 0.5 : 1"
       sodipodi:type="inkscape:persp3d" />
    <inkscape:perspective
       id="perspective3100"
       inkscape:persp3d-origin="372.04724 : 350.78739 : 1"
       inkscape:vp_z="744.09448 : 526.18109 : 1"
       inkscape:vp_y="0 : 1000 : 0"
       inkscape:vp_x="0 : 526.18109 : 1"
       sodipodi:type="inkscape:persp3d" />
  </defs>
  <sodipodi:namedview
     pagecolor="#ffffff"
     bordercolor="#666666"
     borderopacity="1"
     objecttolerance="10"
     gridtolerance="10"
     guidetolerance="10"
     inkscape:pageopacity="0"
     inkscape:pageshadow="2"
     inkscape:window-width="1920"
     inkscape:window-height="1005"
     id="namedview2878"
     showgrid="false"
     inkscape:zoom="1.2403373"
     inkscape:cx="388.32689"
     inkscape:cy="294.89296"
     inkscape:window-x="0"
     inkscape:window-y="25"
     inkscape:window-maximized="1"
     inkscape:current-layer="svg2876"
     showguides="true"
     inkscape:guide-bbox="true" />
  <path
     style="fill:#860000;fill-opacity:1;stroke:#000000;stroke-width:0.82989484px;stroke-linecap:butt;stroke-linejoin:miter;stroke-opacity:1"
     d="m 19.95848,296.72378 c 0,0 -16.7956434,16.79563 -18.4515492,46.83854 -1.65590567,30.0429 -3.7849345,47.0751 13.2472622,105.97812 17.032206,58.90303 48.257903,102.90287 79.483602,141.46188 31.225695,38.559 64.580415,70.02125 112.838305,90.83838 48.2579,20.81714 121.11786,-18.45155 121.11786,-18.45155 0,0 26.02142,-15.61284 55.5912,-52.98905 29.56979,-37.37622 61.97828,-89.6556 66.94601,-102.42976 4.96772,-12.77414 14.1935,-38.32244 16.55908,-84.21475 2.36558,-45.89232 -4.73116,-87.76313 -15.13973,-130.58019 -10.40856,-42.81705 -44.47297,-60.55893 -44.47297,-60.55893 0,0 -28.15044,-32.17193 -29.80634,10.88169 -1.65591,43.0536 -1.18279,70.49437 0.47311,77.35456 1.65592,6.86019 4.96773,10.88169 6.38708,11.82792 1.41935,0.94623 -2.8387,1.89246 -4.25805,5.91395 -1.41935,4.0215 1.89247,1.65592 -1.18279,5.91397 -3.07526,4.25805 -2.8387,0.23655 -3.78493,6.38707 -0.94624,6.15051 -0.94624,10.40856 1.41935,12.06447 2.36558,1.65591 7.56986,-2.12902 11.82791,-2.12902 4.25805,0 7.80642,0 6.15052,1.41935 -1.65591,1.41934 -8.04299,3.07526 -7.33331,4.96772 0.70967,1.89246 3.31182,0.23656 0.70967,8.04298 -2.60214,7.80643 -2.95073,11.58473 -0.60892,14.01018 2.34181,2.42544 -0.33454,3.59635 0,6.85815 0.33454,3.2618 1.83999,2.00726 2.59271,4.59998 0.75273,2.59272 -1.1709,4.43271 -1.58908,11.95995 -0.41818,7.52723 1.00363,11.12358 2.34181,14.71993 1.33818,3.59635 2.84362,1.50545 2.59271,4.68361 -0.2509,3.17818 -1.08726,4.26544 -0.91999,6.60725 0.16727,2.34181 1.00363,5.60361 0.50182,7.86179 -0.50182,2.25817 -1.33818,5.01816 -4.26544,2.09089 -2.92726,-2.92726 -13.13085,-8.69814 -17.39629,-8.11268 -4.26543,0.58545 -5.3527,1.92362 -6.69088,6.85815 -1.33818,4.93452 -1.58908,5.01816 -1.67272,6.10542 -0.0836,1.08727 -2.3418,3.59635 -2.84362,5.51998 -0.50181,1.92363 0.16727,7.27633 1.17091,9.61814 1.00363,2.3418 0.50181,4.76725 3.84725,8.69814 3.34544,3.93089 5.01816,1.67272 4.93453,5.93816 -0.0836,4.26543 0.0836,6.60724 -2.50909,7.52723 -2.59272,0.92 -4.1818,3.42908 -4.85089,5.60362 -0.66908,2.17453 1.17091,8.78177 0.25091,10.95631 -0.91999,2.17453 -5.26906,5.01816 -5.60361,5.68725 -0.33454,0.66908 1.17091,6.69088 -3.01089,5.77088 -4.1818,-0.91999 -6.18907,3.9309 -6.2727,7.77815 -0.0836,3.84726 -1.33818,12.79631 -8.19633,13.38176 -6.85815,0.58545 -10.70541,2.67635 -11.87632,5.43634 -1.17089,2.75998 -1.67272,8.61451 -1.33817,10.03632 0.33455,1.42181 -3.01089,6.60724 -4.09816,7.4436 -1.08727,0.83636 -5.77089,1.83999 -7.52724,7.52724 -1.75635,5.68725 0.50182,13.7163 -4.93453,15.89084 -5.43633,2.17453 -5.85452,2.59272 -7.35996,5.10179 -1.50545,2.50908 -8.86542,2.17454 -9.86905,2.34181 -1.00364,0.16727 -0.92,1.67272 -1.58908,2.84363 -0.66909,1.1709 -1.42181,0.66908 -3.51272,-0.83636 -2.09089,-1.50545 -1.92363,-2.84363 -4.09816,-1.84 -2.17453,1.00364 -4.01452,3.09454 -4.76725,4.34908 -0.75273,1.25454 -0.25091,2.67635 -2.92726,3.93088 -2.67635,1.25455 -9.19996,1.67273 -9.19996,1.67273 0,0 -4.59998,3.59634 -7.02542,2.42544 -2.42544,-1.1709 -5.60362,-5.60361 -11.3745,-5.43634 -5.77088,0.16728 -5.43634,3.0109 -6.2727,2.67635 -0.83636,-0.33454 -3.93089,-12.12722 -6.02179,-12.96357 -2.0909,-0.83636 -0.92,-9.70178 -2.34181,-12.21086 -1.42181,-2.50908 -5.43634,-6.77452 -8.11268,-8.61451 -2.67636,-1.83999 -3.34545,-13.04722 -3.0109,-17.8981 0.33454,-4.85089 -1.33818,-10.11995 -3.26181,-14.13449 -1.92363,-4.01452 0.66909,-17.56355 0.25091,-23.75262 -0.41818,-6.18906 -1.1709,-31.53076 -3.42907,-32.70167 -2.25818,-1.1709 2.59271,-4.85088 4.1818,-8.02906 1.58908,-3.17816 2.25817,-17.229 1.25453,-18.23264 -1.00363,-1.00363 6.43998,-2.17454 7.77815,-9.45087 1.33818,-7.27633 2.25818,-10.87268 3.09454,-10.78904 0.83636,0.0836 0.66908,0.58545 2.50908,1.83999 1.83998,1.25454 11.87631,-0.58545 13.88356,-9.28359 2.00727,-8.69815 2.34182,-28.60352 -3.2618,-44.49435 -5.60361,-15.89084 -18.14901,-53.61068 -19.73809,-56.95611 -1.58909,-3.34544 -5.77088,-21.66173 -3.67998,-37.71984 2.09089,-16.05811 1.67272,-15.13812 3.67998,-18.14901 2.00726,-3.0109 4.55517,-9.14253 -5.03425,-13.57599 -5.12777,-2.8404 -10.62575,-3.00236 -17.12669,0.8254 0.74941,0.24594 3.81078,20.27756 3.84967,20.61586 -0.48144,-0.023 -9.73186,1.57536 -9.77432,1.42082 -0.0275,-0.0998 1.09355,-18.05593 -0.72737,-17.49658 -8.79625,2.70208 -11.62563,13.57468 -11.58323,22.51224 3.28984,17.38921 -9.86904,53.86159 -11.95994,65.23608 -2.0909,11.3745 -4.59999,14.55266 -3.0109,19.989 1.58909,5.43635 1.83999,5.18543 -0.83636,11.29086 -2.67635,6.10543 -2.92726,22.0799 -4.01453,32.86895 -1.08726,10.78904 -3.51271,17.39629 -2.84362,26.59625 0.66909,9.19995 2.50908,13.46539 1.42181,17.64719 -1.08727,4.1818 -2.75999,16.30902 -2.17454,27.34897 0.58546,11.03995 -3.59634,12.87994 -4.4327,22.91626 -0.83636,10.03632 -2.09619,31.23091 1.21563,44.9513 3.31181,13.72038 3.78493,22.23647 -4.25805,29.33323 -8.04298,7.09674 -12.77415,8.04298 -17.97843,2.83869 -5.20429,-5.20427 -8.98922,-10.88168 -12.30104,-12.30103 -3.31182,-1.41934 -0.94623,-4.73116 -3.07525,-7.56986 -2.12902,-2.8387 -3.07526,-2.12903 -3.07526,-2.12903 0,0 -0.67288,-4.10535 -3.34923,-4.77443 -2.67635,-0.66909 -3.0109,0.66908 -5.01816,-1.84 -2.00726,-2.50907 -4.68361,-12.04358 -7.35997,-15.89083 -2.676348,-3.84726 -5.770877,-4.59998 -6.439971,-5.93816 -0.669086,-1.33818 -1.421809,-10.87268 -6.439968,-12.12721 -5.018158,-1.25455 -4.432709,-5.77089 -4.349072,-10.95632 0.08364,-5.18543 0,-5.3527 -2.007266,-7.77815 -2.00726,-2.42544 -2.090896,-3.26181 -4.516347,-3.59635 -2.425442,-0.33454 -1.421809,-7.02542 -2.843618,-10.53813 -1.421817,-3.51271 -5.436342,-9.03269 -8.447234,-10.4545 -3.0109,-1.42181 -4.265435,-5.43634 -7.861785,-6.02179 -3.596349,-0.58545 -1.589082,-4.1818 -2.592715,-7.94542 -1.003634,-3.76362 -2.592716,-8.94905 -4.850893,-10.4545 -2.258169,-1.50545 -0.501813,-5.60361 -1.003625,-8.11269 -0.501821,-2.50908 -4.599983,-6.94179 -5.77089,-7.02543 -1.170899,-0.0836 -1.087262,-8.86541 -1.087262,-8.86541 0,0 -1.756356,-7.44361 -3.0109,-8.94905 -1.254543,-1.50545 -0.167273,-5.93816 0.334548,-7.27634 0.501812,-1.33817 -0.167274,-5.26906 -0.919997,-6.85815 -0.752723,-1.58908 -1.08727,-2.67634 -0.418184,-5.18543 0.669086,-2.50908 1.08727,-2.50908 0.83636,-5.60361 -0.250902,-3.09453 -2.341806,-8.61451 -2.927255,-8.78178 -0.585458,-0.16727 -0.752731,-3.2618 -0.585458,-5.60361 0.167274,-2.34181 -0.418175,-11.20722 -1.505446,-12.12722 -1.08727,-0.91999 2.174541,-3.09453 1.839993,-5.93815 -0.334547,-2.84363 -0.585449,-10.53814 -1.756356,-13.13086 -1.170907,-2.59271 -2.843626,-41.98526 -0.752723,-43.99253 2.090895,-2.00726 1.589083,-35.46166 -15.604836,-10.83516 z"
     id="ventricles"
     sodipodi:nodetypes="csssscsssscsssssssssssssssssssssssssssssssssssssssssssssscsssssssssssssssssssscccsscssssssssssssscssssssssssssssscsssssssssssc">
    <title
       id="title2878">Ventricles</title>
    <desc
       id="desc2919">The heart ventricles
        </desc>
  </path>
  <path
     sodipodi:type="arc"
     style="fill:#860000;fill-opacity:1;stroke:#000000;stroke-width:1px;stroke-linecap:butt;stroke-linejoin:miter;stroke-opacity:1"
     id="atrioventricular_node"
     sodipodi:cx="327.80304"
     sodipodi:cy="294.66476"
     sodipodi:rx="9.4065228"
     sodipodi:ry="9.4065228"
     d="m 337.20956,294.66476 a 9.4065228,9.4065228 0 1 1 -18.81304,0 9.4065228,9.4065228 0 1 1 18.81304,0 z"
     transform="matrix(0.82989483,0,0,0.82989483,-89.571902,-31.799084)">
    <title
       id="title2874">Atrioventricular node</title>
    <desc
       id="desc3697">The atrioventricular node
        </desc>
  </path>
  <path
     style="fill:#860000;fill-opacity:1;stroke:#000000;stroke-width:0.82989484px;stroke-linecap:butt;stroke-linejoin:miter;stroke-opacity:1"
     d="m 196.50668,256.60147 c -0.35505,-2.07253 -1.92052,-5.58025 -1.51461,-5.51405 -4.15828,5.33279 -9.5136,12.1908 -18.5672,19.82732 -38.47256,32.45076 -43.152,34.4433 -46.1629,38.12329 -3.01089,3.67998 -26.08989,14.05894 -29.43533,14.39349 -3.345442,0.33454 -9.037749,5.01303 6.01673,2.67122 15.05448,-2.3418 57.22135,-37.46982 61.90497,-40.14616 3.75411,-2.14521 18.37699,-20.46716 27.75834,-29.35511 z"
     id="atria2"
     sodipodi:nodetypes="ccsssssc"
     inkscape:label="#atria">
    <title
       id="title2852">Atria
        </title>
  </path>
  <path
     style="fill:#860000;fill-opacity:1;stroke:#000000;stroke-width:0.82989484px;stroke-linecap:butt;stroke-linejoin:miter;stroke-opacity:1"
     d="m 276.99775,0.42089394 c -1.97819,-0.0263824 -3.94253,0.0351792 -5.88707,0.18153949 -31.11259,2.34180807 -54.52456,9.35741897 -75.93537,25.41552857 -21.41082,16.058111 -41.1602,49.858635 -41.49475,54.876793 -0.33454,5.018159 1.00074,12.362745 -13.7192,8.013672 0,0 -30.44251,-6.695857 -73.264146,9.362251 C 23.875587,114.32878 10.508031,145.4427 5.155326,158.48992 c -5.35270567,13.04722 -3.0210747,69.2734 8.687961,93.02602 11.709036,23.75262 35.794418,59.52942 36.463504,60.8676 0.669095,1.33817 10.039437,9.37013 23.75574,13.7192 13.7163,4.34907 30.106719,-1.67019 16.39042,-3.00837 C 76.73665,321.7562 57.321884,314.05611 52.303726,305.69252 47.285568,297.32891 23.545214,253.50991 20.534314,236.44817 17.523423,219.38642 4.4788041,181.91841 20.871459,159.8385 37.264114,137.7586 69.698446,100.30128 98.803768,97.959468 c 29.105322,-2.341806 54.889942,-0.349776 63.253542,14.704692 8.3636,15.05449 18.73238,36.81402 23.08145,55.21395 4.34908,18.39992 12.02575,41.80616 14.36756,51.84249 1.54691,6.62963 4.10548,15.33112 1.79066,23.41206 0.0464,0.26003 2.40145,8.17171 2.50105,8.60413 1.33818,-0.83636 6.58954,-6.7456 33.52033,4.62889 42.41861,17.91593 64.90842,16.55369 77.6211,10.86644 12.71267,-5.68725 0.99056,-7.37565 -5.03124,-5.36838 -6.02179,2.00725 -19.39173,10.04144 -51.84249,-2.67123 -32.45076,-12.71268 -45.18008,-16.39866 -48.86006,-37.47494 -3.67998,-21.07626 -18.04516,-65.56978 -24.06695,-79.95518 -6.02179,-14.38538 -9.70467,-19.72857 -13.7192,-38.79758 -4.01453,-19.068997 -7.35454,-34.804075 10.71083,-51.531277 18.06538,-16.727196 23.3934,-30.776257 56.8478,-36.463504 33.4544,-5.6872475 43.82941,-11.3666934 70.59293,1.011434 26.76352,12.378127 66.24891,34.456686 64.57619,56.536583 -1.67272,22.0799 -4.35687,30.101894 -1.01143,32.443694 3.34544,2.34181 17.39398,61.23358 13.04491,74.94988 -4.34908,13.7163 -0.9965,31.43538 -29.09819,55.18801 -28.1017,23.75262 -26.75638,17.40973 -29.09819,21.7588 -2.3418,4.34908 -9.02986,14.70961 10.37369,1.99694 19.40355,-12.71267 23.75589,-21.06378 30.44676,-21.73287 6.69088,-0.66909 17.39673,-25.09941 20.07308,-37.81209 2.67636,-12.71267 8.02133,-27.10451 2.33408,-57.54802 -5.68724,-30.44349 -15.38143,-41.13203 -9.0251,-57.859224 6.35634,-16.727198 -7.04154,-39.492899 -25.44147,-52.20557 C 339.49549,19.779468 306.67051,0.81665419 276.99771,0.42093543 l 4e-5,-4.149e-5 z"
     id="atria"
     sodipodi:nodetypes="cssscsssssssssssssccssssssssssssssssssssscc">
    <title
       id="title2854">Atria</title>
  </path>
  <path
     style="fill:#860000;fill-opacity:1;stroke:#000000;stroke-width:0.82989484px;stroke-linecap:butt;stroke-linejoin:miter;stroke-opacity:1"
     d="m 34.392409,109.45114 c 0,0 18.149012,-14.301762 25.007163,-1.84 6.858152,12.46176 7.025425,12.87995 -4.098161,20.40718 -11.123587,7.52724 -14.385389,10.78905 -23.083533,0.25091 -8.698145,-10.53813 -1.342379,-16.24915 2.174531,-18.81809 z"
     id="sinoatrial_node"
     sodipodi:nodetypes="csssc">
    <title
       id="title2856">Sinoatrial node</title>
    <desc
       id="desc3740">The sinoatrial node
        </desc>
  </path>
  <path
     style="fill:#860000;fill-opacity:1;stroke:#000000;stroke-width:0.82989484px;stroke-linecap:butt;stroke-linejoin:miter;stroke-opacity:1"
     d="m 84.130588,114.40734 c -7.220227,-0.0261 -14.71648,1.03246 -20.285885,4.07991 -0.09067,2.27528 -1.253458,3.3384 -2.072072,4.56758 6.380254,-3.3253 14.304688,-4.68252 22.332023,-4.54988 38.375946,0.6341 89.518696,37.97301 95.671316,85.06422 -2.25466,0.62404 -3.87755,1.87984 -5.18685,3.44925 -0.003,-0.002 -0.0236,-0.0241 -0.0259,-0.0259 -47.95198,-22.2758 -106.981569,-39.0128 -119.74679,-78.88199 -0.944891,0.72597 -2.69321,1.6063 -3.465242,2.35832 19.369183,46.5381 73.804282,54.56681 121.552202,79.14298 -0.44541,1.10544 -0.527,1.87276 -0.46681,3.8642 -71.10006,3.58259 -137.274617,8.9224 -127.25919,-79.30683 l -3.589343,0.85583 c -13.515276,87.70008 55.056408,88.34958 131.652493,80.96662 l 2.59342,-0.23341 c -1.2051,-2.79889 -0.92345,-5.01248 0.9855,-7.41719 1.84368,-2.44681 5.93984,-2.7456 6.50948,-2.74902 -3.56369,-49.16864 -60.20914,-91.04374 -99.198362,-91.1847 z"
     id="internodal_fibres"
     sodipodi:nodetypes="cccscccccccccccccc">
    <title
       id="title2879">Internodal fibres</title>
  </path>
  <path
     style="fill:#860000;fill-opacity:1;stroke:#000000;stroke-width:0.82989484px;stroke-linecap:butt;stroke-linejoin:miter;stroke-opacity:1"
     d="m 184.66829,219.97966 c 17.61851,39.06178 15.74717,48.78466 14.62195,57.72739 l 6.99498,-0.82621 c -0.42886,-3.71498 -6.30337,-38.3264 -17.43513,-59.07571 l -4.1818,2.17453 z"
     id="bundle_of_his"
     sodipodi:nodetypes="ccccc"
     inkscape:label="#path2836">
    <title
       id="title2876">Bundle of His</title>
  </path>
  <path
     style="fill:#860000;fill-opacity:1;stroke:#000000;stroke-width:0.82989484px;stroke-linecap:butt;stroke-linejoin:miter;stroke-opacity:1"
     d="m 199.42645,276.72371 c -0.13093,2.75137 -5.61716,23.57003 -12.67022,43.77382 -4.98281,13.54166 -7.51649,26.53907 -8.48934,39.18962 -2.41189,41.75485 -4.11171,40.07315 -6.12824,57.71067 l -2.35125,70.40274 -5.02447,40.62867 2.56515,45.48588 c -1.47593,11.96217 -5.73668,12.78506 -9.3016,16.39126 -17.30462,7.45488 -27.8868,-7.10848 -37.68385,-17.29348 l -1.9592,2.65165 c 4.36352,5.21981 7.51287,8.13226 12.62443,12.2659 10.52601,8.51223 18.49814,8.012 23.04965,7.07304 12.78643,-4.90375 14.10137,-10.14266 16.67552,-23.26108 0.97172,-4.95212 -3.49462,-23.88292 -2.85831,-41.30806 0.58618,-16.0524 5.68055,-34.53446 5.55615,-44.83423 -0.35417,-29.32572 1.26954,-24.84022 2.50023,-65.36066 0.67976,-22.3811 5.89977,-38.41959 6.65572,-60.54804 0.53084,-12.77356 3.08621,-25.34466 8.07677,-37.67225 3.9676,-12.38128 8.43701,-25.83802 12.40461,-38.64341 12.65239,29.31018 21.44482,61.09334 24.99293,88.98359 3.03046,23.82121 -2.72147,46.73561 -9.23806,64.887 -5.66133,15.76913 -8.66726,29.59622 -10.72754,41.81601 -0.70204,4.1639 4.24952,15.81067 4.05558,19.6149 -1.42666,27.98455 -0.88732,47.88733 3.26823,63.63632 2.55543,9.68475 8.13601,18.33573 10.74847,24.65361 11.12442,26.90286 15.65197,23.65422 15.03841,23.5926 l 1.17091,-3.0109 c -0.38508,-2.87655 -3.05876,-3.15728 -4.91584,-6.14874 -2.5835,-4.16156 -4.6818,-11.066 -6.58144,-15.23638 -4.37221,-9.59855 -11.01294,-17.79311 -11.56941,-25.28513 -0.49673,-6.68785 -1.99103,-7.36922 -2.32936,-12.3619 -0.44352,-6.54498 -1.3218,-11.97069 -1.42122,-17.5834 -0.22768,-12.85382 0.78946,-23.84825 0.21714,-31.26167 -0.78055,-10.11082 -3.50439,-14.65645 -3.27625,-18.25103 0.67264,-10.59753 3.68757,-24.5851 10.09868,-42.6424 14.86987,-41.88197 12.40265,-80.17637 -5.42045,-128.99521 -3.58855,-9.82931 -8.54422,-24.02548 -11.07835,-34.00615 l -6.67418,0.94684 z"
     id="bundle_branches"
     sodipodi:nodetypes="ccccccccccscsssscccssssssccssssssssscc"
     inkscape:label="#path3612">
    <title
       id="title2841">Bundle branches</title>
  </path>
  <path
     style="fill:#860000;fill-opacity:1;stroke:#000000;stroke-width:0.82989484px;stroke-linecap:butt;stroke-linejoin:miter;stroke-opacity:1"
     d="m 241.20747,610.87651 c 12.70403,12.92918 24.20684,26.16209 30.79562,30.82924 19.33547,13.69949 12.01899,15.15338 10.48835,26.90312 -3.03607,22.28171 6.73514,-15.61857 6.73514,-15.61857 2.30556,-2.30556 10.24206,4.16357 25.69807,5.40036 0,0 4.45457,-1.71454 7.84691,-5.02751 12.07812,-9.6662 17.56165,-1.40564 27.23101,-9.46599 0,0 -11.12582,2.20856 -22.40716,3.00837 0,0 4.07412,-6.7589 11.51479,-12.18908 -5.87939,3.32541 -12.92337,7.62146 -17.94648,12.18908 0,0 -0.28007,10.22445 -13.97649,7.80634 -13.69326,-2.41499 -37.2273,-23.36792 -37.2273,-23.36792 0,0 25.511,-9.08912 34.37427,-11.51345 8.86021,-2.41811 57.56864,10.45857 75.45939,-8.37823 0,0 -15.02001,13.84497 -66.81664,5.29845 0,0 22.97576,-2.13273 38.2811,-8.5779 15.29903,-6.45451 42.68249,-25.7672 48.3154,-42.68772 0,0 -30.50836,38.22571 -65.14916,43.85862 0,0 11.21661,-24.43531 17.63768,-23.73367 7.24498,-5.63291 45.9087,-43.50205 47.51148,-48.34137 0,0 -42.92601,41.63579 -51.78929,45.65974 -8.86012,4.02395 5.88573,-27.92074 5.88573,-27.92074 0,0 79.87817,-53.05119 85.09537,-62.82516 2.49142,-4.66746 6.43169,-13.7192 6.43169,-13.7192 0,0 -19.98483,23.47011 -90.55578,70.31881 0,0 18.84018,-25.06379 31.52981,-45.19108 30.66184,-39.75541 62.25831,-54.07014 62.25831,-54.07014 l 12.6301,-20.50378 c 0,0 -64.97943,54.04796 -74.65185,66.93519 0,0 27.82513,-47.18462 31.60476,-85.15946 0,0 31.36617,-52.2587 24.05895,-68.99249 0,0 -14.95185,39.95167 -27.92319,67.09856 0,0 1.90656,-47.36396 -0.25017,-59.06548 2.28331,-9.91682 31.33171,-51.48889 26.32253,-53.49255 -8.2761,11.08747 -10.55939,29.13652 -26.68707,36.85904 0,0 6.51793,-29.06845 5.66214,-36.95452 -0.84334,-7.88607 -6.33182,-39.87444 -6.33182,-39.87444 L 406.49179,241.818 c 0,0 6.55517,26.23693 7.28349,47.63266 0,0 -7.12672,1.07368 -14.6269,-9.80313 -7.4971,-10.87681 -16.22978,-30.79893 -16.22978,-30.79893 0,0 12.18811,32.87885 16.56689,37.67149 4.38184,4.78953 11.35595,5.86141 14.69836,8.62496 3.33617,2.76666 -5.18061,27.23226 -4.32532,41.43702 2.51419,17.51346 -0.62052,40.60252 0.33812,54.65887 1.31421,19.27014 0.12379,30.58069 -5.60052,50.37195 -5.47845,27.84047 -18.89654,40.29627 -21.30846,59.638 0,0 -34.46229,47.29917 -35.27144,49.71105 0,0 -9.15107,35.54975 -12.47558,46.38464 -7.94742,16.23487 -18.23634,12.56973 -34.03338,18.72859 0,0 -33.49093,10.94189 -37.96613,10.2012 -8.44205,0.56 -7.45316,-5.32424 -20.90451,-19.4638 l -1.42916,4.06394 z m 106.53878,19.11991 c -3.22489,1.20672 -6.09101,2.8556 -8.58427,4.66816 4.43504,-2.50546 8.58427,-4.66816 8.58427,-4.66816 z"
     id="purkinje_fibres3"
     sodipodi:nodetypes="ccccccccccccccccccccccscccccccccccccccccccccsccccccccccc"
     inkscape:label="#path2911">
    <title
       id="title3698">Purkinje fibres</title>
  </path>
  <path
     style="fill:#860000;fill-opacity:1;stroke:#000000;stroke-width:0.82989484px;stroke-linecap:butt;stroke-linejoin:miter;stroke-opacity:1"
     d="M 104.88227,554.81645 C 95.893792,548.93308 87.687302,533.20404 68.981658,508.97461 54.49045,490.20265 57.741662,469.08314 46.303695,456.62224 40.060321,444.15575 40.334975,438.72573 35.320112,427.91519 31.989005,415.93004 38.644778,398.73161 32.453721,389.61964 26.4394,380.46765 26.441486,365.21095 23.908935,361.4082 c -0.181405,-1.62142 0.715468,-44.07415 0.134233,-45.3497 -0.963696,-2.11487 -3.981387,39.99137 -3.981387,39.99137 0,0 4.973451,12.14456 1.455585,15.3548 -2.612789,2.3843 -17.9225776,-5.20934 -17.1758426,-2.14332 0.4257123,1.74794 20.0364576,6.11764 20.5003046,7.83227 1.068499,3.94974 2.213017,7.61856 3.317652,10.11937 3.809599,8.62693 -0.465289,26.32955 0.964662,31.60009 1.428132,5.27617 2.867958,10.53684 2.867958,10.53684 0,0 -22.7072997,-29.06193 -17.637032,-20.61086 1.095021,1.82351 12.869793,24.46087 18.587893,29.25014 5.714398,4.79666 5.264612,17.29851 9.07978,24.00573 3.805914,6.71642 7.953562,19.27324 11.293806,26.46538 3.332941,7.1848 8.042876,18.58589 8.042876,18.58589 0,0 -12.803501,-9.87421 -26.426449,-19.60166 8.004435,6.40098 13.966159,17.87122 25.951002,22.94938 0,0 5.710722,2.8775 9.523998,8.62384 3.809557,5.75742 6.07327,8.33075 6.533372,11.57048 0,0 -1.222137,-0.18526 -2.887711,0.39047 -2.972177,1.02751 -2.868888,1.71144 -5.215399,1.77249 -12.297473,0.32953 -10.195648,1.5516 -10.195648,1.5516 0,0 6.412406,0.68528 10.389744,1.06447 1.076714,-0.25008 5.942677,-2.02418 5.942677,-2.02418 0,0 4.018675,-0.43676 -3.598697,9.13986 -1.270229,3.40054 -2.817593,5.63796 -2.817593,5.63796 0,0 0.854692,0.87387 4.783912,-3.07859 5.061064,-5.09101 2.470514,-7.0694 8.659768,-6.58616 0,0 -1.307016,0.68908 -4.643658,15.54183 -1.829329,9.00752 0.371976,11.75709 0.371976,11.75709 0,0 0.569905,-3.27312 4.856153,-10.4579 2.732949,-4.58194 0.828955,-6.02957 4.4766,-10.82438 2.079642,-2.73617 3.632948,4.72449 6.901447,5.091 5.521182,0.61836 -3.239055,8.08461 1.045352,27.74142 2.868158,5.34216 0.862311,8.71069 4.22736,13.56491 0,0 0.234304,-1.40335 -0.24233,-13.38292 -0.288919,-7.26623 -1.334869,-16.1974 1.871061,-18.20421 2.07967,-1.30327 5.34561,2.35143 8.03141,5.04073 0.6288,0.62961 9.19389,11.89234 9.22497,11.67576 l 2.2054,-3.25666 c -0.0603,-0.26573 -10.33773,-13.46096 -15.44587,-17.92638 z"
     id="purkinje_fibres1"
     sodipodi:nodetypes="ccccccscsssccccccccccccsccccccscccscsccsssccc"
     inkscape:label="#path2920">
    <title
       id="title3694">Purkinje fibres</title>
  </path>
  <path
     style="fill:#860000;fill-opacity:1;stroke:#000000;stroke-width:0.82989484px;stroke-linecap:butt;stroke-linejoin:miter;stroke-opacity:1"
     d="m 178.33061,573.1584 c 0,0 2.86094,1.99337 4.62337,6.47515 -0.098,0.37475 3.51149,5.86522 0.5303,5.91423 -14.51328,0.23859 -54.89201,33.93311 -53.93205,35.1976 0.92296,1.21577 15.86503,-10.88579 19.68098,-11.84535 4.82228,-1.21261 17.40508,-13.41241 14.33507,-8.57755 -7.40352,11.65954 -4.15949,48.96208 -3.05806,47.34053 3.50485,-5.15989 -1.31062,-58.24964 16.88843,-56.04453 18.64612,2.25929 23.59203,9.89884 25.1625,12.2234 1.37049,2.02624 3.54756,4.97049 4.81561,8.30649 0.88181,2.31987 1.66688,3.2047 1.06841,5.40853 -1.84482,6.7935 -1.96228,5.68543 -3.37099,7.84613 -1.2887,6.04028 -12.15851,15.81538 -13.33168,25.4435 -1.17165,9.63203 -1.17168,11.15906 -1.17168,11.15906 0,0 3.02818,-17.54649 11.64111,-27.68556 8.6083,-10.13712 8.28435,-18.04412 8.28435,-18.04412 0,0 5.87093,14.7006 5.87093,24.32479 0,9.63007 -3.46963,15.74602 -6.99222,20.31144 -3.52256,4.55955 -5.58115,13.19834 -5.58115,13.19834 0,0 1.73458,-7.56465 9.95287,-14.14458 0,0 0.61179,6.46965 2.17953,8.4998 1.5648,2.03018 -3.18492,-4.13862 0.73076,-14.78084 3.91104,-10.64026 4.0063,-23.22911 -1.47406,-32.85723 0,0 1.96591,3.03709 14.48835,3.54023 12.52548,0.51292 8.96059,-0.13769 14.66474,1.0115 0,0 11.92227,-0.20361 -10.35602,-3.03449 -22.28286,-2.82891 -27.82863,-17.91605 -30.56657,-21.4615 -1.77912,-2.30647 -14.31496,-17.74563 -24.52028,-31.65783 l -8.06778,-2.17439 0.0449,3.34559 c 2.72894,0.61173 6.95559,0.62761 7.46032,2.76166 l 2e-5,0 z"
     id="purkinje_fibres2"
     sodipodi:nodetypes="ccsssssscsscccccscccsccccccccccc"
     inkscape:label="#path2909">
    <title
       id="title3696">Purkinje fibres</title>
  </path>
</svg>
