<?xml version="1.0" encoding="UTF-8" standalone="no"?>
<!-- Created with Inkscape (http://www.inkscape.org/) -->

<svg
   xmlns:dc="http://purl.org/dc/elements/1.1/"
   xmlns:cc="http://creativecommons.org/ns#"
   xmlns:rdf="http://www.w3.org/1999/02/22-rdf-syntax-ns#"
   xmlns:svg="http://www.w3.org/2000/svg"
   xmlns="http://www.w3.org/2000/svg"
   xmlns:sodipodi="http://sodipodi.sourceforge.net/DTD/sodipodi-0.dtd"
   xmlns:inkscape="http://www.inkscape.org/namespaces/inkscape"
   id="svg2876"
   version="1.1"
   inkscape:version="0.47pre1 r21720"
   width="480.99988"
   height="707.00012"
   sodipodi:docname="heart5.svg"
   inkscape:output_extension="org.inkscape.output.svg.inkscape">
  <metadata
     id="metadata2882">
    <rdf:RDF>
      <cc:Work
         rdf:about="">
        <dc:format>image/svg+xml</dc:format>
        <dc:type
           rdf:resource="http://purl.org/dc/dcmitype/StillImage" />
        <dc:title></dc:title>
      </cc:Work>
    </rdf:RDF>
  </metadata>
  <defs
     id="defs2880">
    <inkscape:perspective
       sodipodi:type="inkscape:persp3d"
       inkscape:vp_x="0 : 0.5 : 1"
       inkscape:vp_y="0 : 1000 : 0"
       inkscape:vp_z="1 : 0.5 : 1"
       inkscape:persp3d-origin="0.5 : 0.33333333 : 1"
       id="perspective2884" />
    <inkscape:perspective
       id="perspective3719"
       inkscape:persp3d-origin="0.5 : 0.33333333 : 1"
       inkscape:vp_z="1 : 0.5 : 1"
       inkscape:vp_y="0 : 1000 : 0"
       inkscape:vp_x="0 : 0.5 : 1"
       sodipodi:type="inkscape:persp3d" />
    <inkscape:perspective
       id="perspective2829"
       inkscape:persp3d-origin="0.5 : 0.33333333 : 1"
       inkscape:vp_z="1 : 0.5 : 1"
       inkscape:vp_y="0 : 1000 : 0"
       inkscape:vp_x="0 : 0.5 : 1"
       sodipodi:type="inkscape:persp3d" />
    <inkscape:perspective
       id="perspective2830"
       inkscape:persp3d-origin="0.5 : 0.33333333 : 1"
       inkscape:vp_z="1 : 0.5 : 1"
       inkscape:vp_y="0 : 1000 : 0"
       inkscape:vp_x="0 : 0.5 : 1"
       sodipodi:type="inkscape:persp3d" />
    <inkscape:perspective
       id="perspective3622"
       inkscape:persp3d-origin="0.5 : 0.33333333 : 1"
       inkscape:vp_z="1 : 0.5 : 1"
       inkscape:vp_y="0 : 1000 : 0"
       inkscape:vp_x="0 : 0.5 : 1"
       sodipodi:type="inkscape:persp3d" />
    <inkscape:perspective
       id="perspective3644"
       inkscape:persp3d-origin="0.5 : 0.33333333 : 1"
       inkscape:vp_z="1 : 0.5 : 1"
       inkscape:vp_y="0 : 1000 : 0"
       inkscape:vp_x="0 : 0.5 : 1"
       sodipodi:type="inkscape:persp3d" />
    <inkscape:perspective
       id="perspective2835"
       inkscape:persp3d-origin="0.5 : 0.33333333 : 1"
       inkscape:vp_z="1 : 0.5 : 1"
       inkscape:vp_y="0 : 1000 : 0"
       inkscape:vp_x="0 : 0.5 : 1"
       sodipodi:type="inkscape:persp3d" />
    <inkscape:perspective
       id="perspective3100"
       inkscape:persp3d-origin="372.04724 : 350.78739 : 1"
       inkscape:vp_z="744.09448 : 526.18109 : 1"
       inkscape:vp_y="0 : 1000 : 0"
       inkscape:vp_x="0 : 526.18109 : 1"
       sodipodi:type="inkscape:persp3d" />
  </defs>
  <sodipodi:namedview
     pagecolor="#ffffff"
     bordercolor="#666666"
     borderopacity="1"
     objecttolerance="10"
     gridtolerance="10"
     guidetolerance="10"
     inkscape:pageopacity="0"
     inkscape:pageshadow="2"
     inkscape:window-width="1920"
     inkscape:window-height="1006"
     id="namedview2878"
     showgrid="false"
     inkscape:zoom="7.0164073"
     inkscape:cx="250.41168"
     inkscape:cy="195.82223"
     inkscape:window-x="0"
     inkscape:window-y="25"
     inkscape:window-maximized="1"
     inkscape:current-layer="svg2876"
     showguides="true"
     inkscape:guide-bbox="true" />
  <path
     sodipodi:type="arc"
     style="fill:#ff5555;fill-opacity:1;stroke:#000000;stroke-width:1px;stroke-linecap:butt;stroke-linejoin:miter;stroke-opacity:1"
     id="atrioventricular_node"
     sodipodi:cx="327.80304"
     sodipodi:cy="294.66476"
     sodipodi:rx="9.4065228"
     sodipodi:ry="9.4065228"
     d="m 337.20956,294.66476 a 9.4065228,9.4065228 0 1 1 -18.81304,0 9.4065228,9.4065228 0 1 1 18.81304,0 z"
     transform="matrix(0.69628131,-0.35466383,0.56835642,1.1151189,-207.12669,9.6611986)">
    <title
       id="title2874">Atrioventricular node</title>
    <desc
       id="desc3697">The atrioventricular node
        </desc>
  </path>
  <path
     style="fill:#860000;fill-opacity:1;stroke:#000000;stroke-width:0.8525219px;stroke-linecap:butt;stroke-linejoin:miter;stroke-opacity:1"
     d="m 284.59382,0.43236962 c -2.03243,-0.0271 -4.05065,0.03613 -6.04851,0.18646 C 246.57952,3.0241166 222.52552,10.229899 200.52755,26.723294 178.52959,43.216691 158.23862,77.933441 157.8949,83.087621 c -0.34372,5.15419 1.02818,12.69786 -14.09543,8.2309 0,0 -31.27734,-6.87736 -75.273279,9.616029 -43.995926,16.49339 -57.730062,48.45071 -63.2295555,61.8516 -5.49949397,13.40088 -3.103922,71.15118 8.9262125,95.54766 12.030134,24.39648 26.325056,43.89216 27.01249,45.26661 6.278416,-0.58166 6.478234,-3.88773 2.051697,-6.8724 -5.155772,-8.59031 -19.096203,-36.34619 -22.189671,-53.87042 -3.09346,-17.52423 -16.4958025,-56.00789 0.34639,-78.68632 16.842193,-22.67841 50.165977,-61.15108 80.069456,-63.55637 29.90348,-2.405289 56.39519,-0.35926 64.98815,15.10329 8.59296,15.46257 19.24608,37.81193 23.71442,56.71062 4.46834,18.89868 9.51673,44.0523 14.76156,53.24778 6.93446,12.15785 6.81037,22.76041 -5.23154,26.95194 -0.86231,0.30015 -1.69979,1.08285 -1.61199,2.56106 -0.0383,1.94219 2.39054,5.39272 2.49286,5.83686 0.53749,0.72722 0.83769,2.64951 2.19281,1.95244 5.30594,-2.72935 18.96652,-8.96995 41.00682,0.33612 6.54238,-2.76905 1.84929,-5.40846 0.65746,-5.84349 -33.34066,-13.05728 -25.76019,-8.09624 -29.54108,-29.74382 -3.78091,-21.64758 -18.54002,-67.34718 -24.72694,-82.12252 -6.18693,-14.77533 -9.97081,-20.26335 -14.09543,-39.84926 -4.12462,-19.585899 -7.55623,-35.747509 11.00456,-52.928129 18.56078,-17.180618 24.03492,-31.610504 58.40674,-37.451915 34.37182,-5.8414114 45.03135,-11.6748094 72.5288,1.038851 27.49746,12.713659 68.06567,35.390694 66.34707,58.069114 -1.71859,22.67841 -4.47635,30.917859 -1.03917,33.323139 3.43718,2.40529 17.87098,62.89343 13.40265,76.98154 -4.46834,14.0881 -1.02383,32.28749 -29.89616,56.68397 -3.25743,2.73726 9.18883,3.20219 12.04373,2.07771 6.87436,-0.68723 17.8738,-25.77977 20.62355,-38.83705 2.74974,-13.05727 8.24129,-27.83923 2.39808,-59.10797 -5.8432,-31.26872 -15.80324,-42.24699 -9.2726,-59.427609 6.53065,-17.18062 -7.23464,-40.56342 -26.13915,-53.620696 C 348.80544,20.315694 315.08031,0.83885762 284.59378,0.43241162 l 4e-5,-4.2e-5 z"
     id="atria"
     sodipodi:nodetypes="cssscsssccsssssssccsccsssssssssccsssscc">
    <title
       id="title2854">Atria</title>
  </path>
  <path
     style="fill:#ff5555;fill-opacity:1;stroke:#000000;stroke-width:0.8525219px;stroke-linecap:butt;stroke-linejoin:miter;stroke-opacity:1"
     d="m 35.335491,112.41808 c 0,0 18.646714,-14.689439 25.69294,-1.88987 7.04622,12.79956 7.21808,13.22908 -4.210549,20.96035 -11.42863,7.73128 -14.779881,11.08151 -23.716555,0.25772 -8.936675,-10.8238 -1.379192,-16.68963 2.234164,-19.3282 z"
     id="sinoatrial_node"
     sodipodi:nodetypes="csssc">
    <title
       id="title2856">Sinoatrial node</title>
    <desc
       id="desc3740">The sinoatrial node
        </desc>
  </path>
  <path
     style="fill:#ff5555;fill-opacity:1;stroke:#000000;stroke-width:0.8525219px;stroke-linecap:butt;stroke-linejoin:miter;stroke-opacity:1"
     d="m 86.437641,117.50863 c -7.41822,-0.0268 -15.12005,1.06044 -20.84218,4.19051 -0.0932,2.33695 -1.28783,3.42888 -2.1289,4.69139 6.55522,-3.41544 14.69697,-4.80945 22.94444,-4.67322 39.428329,0.65129 91.973579,39.00234 98.294919,87.37004 -2.31649,0.64096 -3.98389,1.9308 -5.32909,3.54275 -0.003,-0.003 -0.0242,-0.0247 -0.0266,-0.0266 -49.26698,-22.87963 -109.915339,-40.07032 -123.030618,-81.02023 -0.970803,0.74565 -2.767067,1.64984 -3.56027,2.42225 19.900349,47.79959 75.828218,56.04594 124.885538,81.28829 -0.45762,1.1354 -0.54145,1.92352 -0.47961,3.96895 -73.04984,3.6797 -141.039111,9.16426 -130.749031,-81.45659 l -3.687774,0.87903 c -13.885906,90.07735 56.566226,90.74446 135.262805,83.16137 l 2.66454,-0.23974 c 0.0202,-2.87475 -0.75215,-5.14835 1.01253,-7.61824 1.89425,-2.51314 6.10273,-2.82002 6.688,-2.82354 C 184.69492,160.6636 126.49607,117.6534 86.437641,117.50862 l 0,1e-5 z"
     id="internodal_fibres"
     sodipodi:nodetypes="cccsccccccccccccccc">
    <title
       id="title2879">Internodal fibres</title>
  </path>
  <path
     style="fill:#ff5555;fill-opacity:1;stroke:#000000;stroke-width:0.8525219px;stroke-linecap:butt;stroke-linejoin:miter;stroke-opacity:1"
     d="m 195.70576,231.35457 c -0.18611,0.22258 0.95761,0.3737 0.56418,1.14061 -0.57177,1.11454 -2.37091,2.35641 -2.96917,2.87599 -1.14933,0.99817 -2.96204,0.6408 -3.01437,2.16413 -1.4006,40.77362 14.88231,43.06487 14.46892,47.69958 l 5.54625,-1.33455 c -1.03863,0.36174 -20.41118,-16.87314 -16.37424,-44.05643 0.0913,-0.61509 6.00792,-5.27936 6.41402,-6.67383 0.71046,-2.43961 -3.24769,-4.787 -2.96123,-5.85294 l -1.67436,4.03744 z"
     id="bundle_of_his"
     sodipodi:nodetypes="csssccsscc"
     inkscape:label="#path2836">
    <title
       id="title2876">Bundle of His</title>
  </path>
  <path
     style="fill:#860000;fill-opacity:1;stroke:#000000;stroke-width:0.8525219px;stroke-linecap:butt;stroke-linejoin:miter;stroke-opacity:1"
     d="m 20.505739,304.76709 c 0,0 -17.2562335,17.25091 -18.9575495,48.10819 -1.70131497,30.85727 -3.888729,48.35116 13.6105445,108.85085 17.499281,60.4997 49.581287,105.69224 81.663287,145.29646 32.081999,39.60422 66.351409,71.91931 115.932689,93.30073 49.58127,21.38142 124.43928,-18.95171 124.43928,-18.95171 0,0 26.73501,-16.03606 57.11569,-54.42543 30.38069,-38.38936 63.67792,-92.08587 68.78187,-105.2063 5.10396,-13.12041 14.58273,-39.36124 17.01319,-86.49755 2.43045,-47.13631 -4.86091,-90.14211 -15.55491,-134.1198 -10.694,-43.97769 -45.69256,-62.20049 -45.69256,-62.20049 0,0 -28.92241,-33.04401 -30.62373,11.17665 -1.70131,44.22065 -1.21522,72.40526 0.48609,79.4514 1.70133,7.04615 5.10396,11.17666 6.56223,12.14854 1.45827,0.97188 -2.91655,1.94376 -4.37481,6.07426 -1.45828,4.13051 1.94436,1.7008 -1.21523,6.07427 -3.15959,4.37347 -2.91655,0.24297 -3.88873,6.56021 -0.97219,6.31723 -0.97219,10.69071 1.45828,12.3915 2.43045,1.7008 7.77745,-2.18673 12.15226,-2.18673 4.37482,0 8.0205,0 6.31919,1.45782 -1.70132,1.45782 -8.26355,3.15862 -7.53441,5.10239 0.72914,1.94375 3.40264,0.24296 0.72914,8.26099 -2.67351,8.01804 -3.03166,11.89876 -0.62563,14.38995 2.40603,2.49119 -0.34371,3.69384 0,7.04405 0.34372,3.35022 1.89045,2.06168 2.66382,4.72468 0.77336,2.66299 -1.20301,4.55286 -1.63266,12.28414 -0.42965,7.73128 1.03115,11.42511 2.40602,15.11895 1.37488,3.69383 2.92161,1.54625 2.66382,4.81057 -0.25779,3.26432 -1.11708,4.38105 -0.94523,6.78635 0.17186,2.40528 1.03116,5.7555 0.51558,8.07489 -0.51558,2.31938 -1.37487,5.15419 -4.3824,2.14757 -3.00754,-3.00661 -13.49095,-8.93392 -17.87335,-8.33259 -4.38241,0.60132 -5.4995,1.97576 -6.87436,7.04405 -1.37488,5.06828 -1.63266,5.15419 -1.7186,6.27092 -0.0859,1.11674 -2.40602,3.69384 -2.9216,5.66961 -0.51558,1.97577 0.17186,7.47357 1.20301,9.87886 1.03116,2.40528 0.51558,4.89647 3.95276,8.93392 3.43718,4.03744 5.15577,1.71806 5.06985,6.09912 -0.0859,4.38106 0.0859,6.78634 -2.5779,7.73128 -2.66381,0.94493 -4.29647,3.52202 -4.98391,5.75551 -0.68743,2.23348 1.20302,9.01982 0.25779,11.2533 -0.94522,2.23348 -5.41356,5.15419 -5.75728,5.84141 -0.34371,0.68722 1.20302,6.87225 -3.09346,5.92731 -4.29648,-0.94492 -6.35879,4.03745 -6.44472,7.98899 -0.0859,3.95155 -1.37487,13.14318 -8.42109,13.7445 -7.04622,0.60132 -10.99899,2.7489 -12.202,5.58371 -1.20301,2.83479 -1.71859,8.84802 -1.37487,10.30837 0.34372,1.46035 -3.09346,6.78634 -4.21055,7.64537 -1.11709,0.85903 -5.92914,1.88987 -7.73366,7.73128 -1.80452,5.84141 0.51558,14.0881 -5.06985,16.32159 -5.58541,2.23348 -6.01506,2.663 -7.56179,5.24009 -1.54673,2.57709 -9.10854,2.23348 -10.13969,2.40528 -1.03116,0.17181 -0.94523,1.71806 -1.63266,2.92071 -0.68744,1.20265 -1.4608,0.68722 -3.60905,-0.85903 -2.14823,-1.54625 -1.97638,-2.92071 -4.21054,-1.88987 -2.23417,1.03084 -4.12462,3.17842 -4.89798,4.46696 -0.77338,1.28855 -0.25779,2.7489 -3.00754,4.03744 -2.74975,1.28855 -9.45225,1.71807 -9.45225,1.71807 0,0 -4.72613,3.69383 -7.21808,2.49119 -2.49196,-1.20264 -5.75729,-5.75551 -11.68642,-5.5837 -5.92914,0.17181 -3.72102,1.83277 -4.58031,1.48916 -0.8593,-0.34362 -3.38362,-11.95205 -5.53186,-12.81108 -2.14824,-0.85903 -3.46471,-9.20893 -4.92551,-11.78602 -1.4608,-2.57709 -2.19013,-8.81771 -4.93986,-10.70758 -2.74975,-1.88987 -5.8247,-11.44054 -5.48098,-16.42292 0.34373,-4.98238 -0.40269,-10.71732 -2.37907,-14.84067 -1.97638,-4.12335 0.78822,-17.93887 0.35857,-24.2957 -0.42965,-6.35683 -0.97483,-32.38546 -3.29492,-33.58811 -2.32011,-1.20264 0.35488,-4.86089 1.98754,-8.12522 1.63266,-3.26431 2.32009,-17.69603 1.28894,-18.72687 -1.03116,-1.03084 6.61658,-2.23348 7.99145,-9.70705 1.37487,-7.47357 2.3201,-11.16741 3.1794,-11.0815 0.85929,0.0859 0.68743,0.60132 2.57788,1.88987 1.89044,1.28855 12.202,-0.60132 14.2643,-9.53525 2.06231,-8.93392 2.40603,-29.37886 -3.35125,-45.70044 -5.75728,-16.3216 -15.63307,-55.18538 -17.26573,-58.6215 -1.63266,-3.43612 -8.94278,-22.12742 -6.79454,-38.62082 2.14823,-16.4934 1.71859,-15.54846 3.78089,-18.64097 2.06232,-3.09252 4.68009,-9.39036 -5.1723,-13.94399 -5.26839,-2.9174 -18.08698,-0.71478 -24.7662,3.21673 0.60545,3.63581 8.66159,13.90238 10.40027,15.96125 10.20389,30.17236 12.94446,33.96221 18.66495,53.8423 4.48363,15.58173 7.89963,34.16257 10.47247,54.22788 2.01792,15.73756 -2.05853,40.87994 -8.88299,54.80971 -7.36655,15.03624 -13.67589,38.83496 -11.33052,54.05277 2.09479,13.59202 3.44465,26.36952 2.38417,36.15669 -0.21017,1.9396 -0.0843,4.04526 0.16598,5.88225 1.06107,7.78682 -0.3531,14.77251 1.69234,21.92646 1.6054,5.61486 0.91647,11.00178 2.55155,16.00326 0.88472,2.70622 2.20551,6.1501 3.50944,8.35132 14.81687,25.0129 14.50808,30.64034 13.81817,30.80209 -0.47596,0.11158 -4.7727,11.02131 -6.61376,8.47708 -0.76626,-1.05892 -19.15428,-41.35906 -21.02176,-50.62913 -0.54376,-2.6992 -4.87726,-21.85725 -3.30559,-64.8937 0.46407,-12.70743 -10.35529,-0.76834 0.67531,-41.79413 3.43224,-12.7654 8.79291,-26.17057 12.61108,-39.02866 9.8008,-33.00536 1.67491,-71.67982 -6.63619,-99.00361 -6.38995,-21.00771 -12.59124,-35.30583 -12.66182,-35.15923 -0.32587,0.67688 -6.01739,21.60849 -16.52868,51.82047 -1.49371,4.29328 0.35863,11.2848 -8.71232,67.89314 -0.59227,3.69612 0.0343,22.23743 -1.82996,44.81327 -0.85359,10.33733 -1.10745,26.57067 -1.07657,42.52665 0.0219,11.31435 -5.17797,22.82821 -5.46014,33.29074 -0.788,29.2181 3.8075,43.05969 2.20398,51.01306 -0.60435,2.99755 -4.50323,15.92374 -4.91812,16.25158 -12.66979,10.01158 -18.92478,10.69936 -27.49276,7.03969 -0.85851,-0.3667 5.14201,-5.23879 6.02944,-5.20368 6.34541,0.2511 10.45351,-2.31111 12.56784,-3.82684 3.63106,-2.60305 5.82235,-11.55102 5.82547,-11.82305 0.0356,-3.10318 -1.76833,-21.99675 -2.50062,-48.6033 -0.5378,-19.5403 6.66523,-45.59669 6.80037,-81.93725 0.7768,-9.61422 0.34267,-21.36811 1.30561,-30.7494 2.18483,-21.28542 4.07458,-28.47999 5.08329,-43.65295 0.53735,-12.30495 0.32264,-24.60285 3.37231,-36.41368 3.26418,-12.64159 7.74365,-24.01259 11.08552,-34.8699 3.06876,-9.97003 5.8837,-20.21984 8.40531,-28.14711 0.0322,-0.10134 -8.65472,-13.55585 -10.52557,-12.98133 -9.03748,2.77532 -2.40492,9.50842 -2.36135,18.68826 3.38006,17.86057 -10.13968,55.32161 -12.28792,67.00442 -2.14824,11.68282 -4.05775,15.25085 -2.42508,20.83456 1.63266,5.5837 1.89044,5.32599 -0.8593,11.59692 -2.74975,6.27093 -3.00754,22.67842 -4.12462,33.75992 -1.11708,11.0815 -3.60905,17.86785 -2.9216,27.31719 0.68743,9.44933 2.57788,13.83039 1.4608,18.12555 -1.11709,4.29515 -2.83568,16.7511 -2.23418,28.09031 0.60152,11.33921 -3.69496,13.22908 -4.55425,23.53745 -0.8593,10.30837 -2.15368,32.07748 1.24896,46.16979 3.40263,14.09229 3.88872,22.83923 -4.37482,30.12836 -8.26354,7.28911 -13.12446,8.261 -18.47146,2.91564 -5.347,-5.34535 -9.23572,-11.17665 -12.63836,-12.63447 -3.40264,-1.45782 -0.97218,-4.85941 -3.15959,-7.77506 -2.18741,-2.91565 -3.15959,-2.18674 -3.15959,-2.18674 0,0 -0.69134,-4.21663 -3.44108,-4.90385 -2.74974,-0.68723 -3.09346,0.68722 -5.15577,-1.88987 -2.06231,-2.57709 -4.81205,-12.37005 -7.5618,-16.32159 -2.74975,-3.95154 -5.929139,-4.72467 -6.616579,-6.09912 -0.68744,-1.37445 -1.4608,-11.16741 -6.61657,-12.45595 -5.15577,-1.28855 -4.55427,-5.92731 -4.46834,-11.2533 0.0859,-5.32599 0,-5.4978 -2.06231,-7.98899 -2.06231,-2.49119 -2.14824,-3.35023 -4.6402,-3.69384 -2.49196,-0.34361 -1.4608,-7.21586 -2.9216,-10.82379 -1.46081,-3.60793 -5.58542,-9.27753 -8.67888,-10.73789 -3.09347,-1.46035 -4.38241,-5.58369 -8.07738,-6.18502 -3.694974,-0.60132 -1.63266,-4.29515 -2.66382,-8.16079 -1.031154,-3.86564 -2.663814,-9.19163 -4.983917,-10.73789 -2.320095,-1.54626 -0.515574,-5.75551 -1.031148,-8.3326 -0.515582,-2.57709 -4.726128,-7.12996 -5.929145,-7.21586 -1.203008,-0.0859 -1.117078,-9.10573 -1.117078,-9.10573 0,0 -1.804521,-7.64538 -3.093468,-9.19163 -1.288947,-1.54626 -0.171861,-6.09912 0.343721,-7.47358 0.515574,-1.37444 -0.17186,-5.41188 -0.945225,-7.04405 -0.773365,-1.63216 -1.117087,-2.74889 -0.429652,-5.32599 0.687434,-2.5771 1.117086,-2.5771 0.859295,-5.75551 -0.257783,-3.17841 -2.406025,-8.84802 -3.007529,-9.01982 -0.601513,-0.17181 -0.773374,-3.35022 -0.601513,-5.75551 0.171861,-2.40529 -0.429643,-11.51101 -1.54673,-12.45595 -1.117086,-0.94493 2.234173,-3.17842 1.890452,-6.09912 -0.343722,-2.92071 -0.601505,-10.82379 -1.804521,-13.48679 -1.203017,-2.66299 -2.921608,-43.12335 -0.773365,-45.18503 2.148234,-2.06167 1.63266,-36.42292 -16.032769,-11.12887 z"
     id="ventricles"
     sodipodi:nodetypes="csssscsssscsssssssssssssssssssssssssssssssssssssssssssssscsssssssssssssssssssscccssssssssssssssssssssssssssssscscsssscssssssssssssscssssssssssssssscsssssssssssc">
    <title
       id="title2878">Ventricles</title>
    <desc
       id="desc2919">The heart ventricles
        </desc>
  </path>
  <path
     style="fill:#ff5555;fill-opacity:1;stroke:#000000;stroke-width:0.8525219px;stroke-linecap:butt;stroke-linejoin:miter;stroke-opacity:1"
     d="m 204.89528,284.22488 c -0.13453,2.82595 -5.7712,24.20895 -13.01768,44.9604 -5.11945,13.90873 -7.72262,27.25845 -8.72215,40.25192 -2.47803,42.88669 -4.22446,41.15941 -6.29629,59.27503 l -2.41573,72.31113 -5.16226,41.72998 2.6355,46.71886 c -1.51641,12.28644 -5.89399,13.13163 -9.55668,16.83558 -10.73861,4.6248 -18.95752,0.99927 -26.00088,-4.90249 4e-5,-0.4304 -1.93003,2.50598 -1.75867,2.46216 10.81466,8.74296 19.00541,8.22918 23.68174,7.26476 13.13707,-5.03667 14.48807,-10.41759 17.13281,-23.89161 0.99837,-5.08636 -3.59044,-24.53031 -2.93669,-42.42779 0.60225,-16.48754 5.83633,-35.47058 5.70852,-46.04954 -0.36389,-30.12065 1.30435,-25.51356 2.56879,-67.13238 0.6984,-22.98779 6.06156,-39.46103 6.83824,-62.18932 0.54539,-13.11981 3.17085,-26.03167 8.29826,-38.69342 4.07641,-12.7169 8.66838,-26.53841 12.74479,-39.69091 12.99935,30.10469 22.0329,62.74939 25.67831,91.39566 3.11357,24.46693 -2.7961,48.00246 -9.4914,66.64588 -5.81658,16.19658 -8.90494,30.39847 -11.02172,42.94951 -0.72129,4.27676 4.36605,16.23924 4.1668,20.14659 -1.46579,28.74312 -0.91166,49.1854 3.35785,65.36131 2.6255,9.94727 8.35913,18.83274 11.04323,25.32188 11.42948,27.63212 16.0812,24.29541 15.45081,24.23213 l 1.20302,-3.09252 c -0.39564,-2.95453 -3.14264,-3.24287 -5.05066,-6.31541 -2.65434,-4.27437 -4.81018,-11.36597 -6.76191,-15.64939 -4.49212,-9.85874 -11.31495,-18.27543 -11.88668,-25.97054 -0.51036,-6.86913 -2.04564,-7.56897 -2.39324,-12.69699 -0.45568,-6.72239 -1.35804,-12.29518 -1.46019,-18.06002 -0.23393,-13.20225 0.8111,-24.49471 0.22309,-32.10908 -0.80196,-10.38489 -3.60049,-15.05374 -3.36609,-18.74576 0.69108,-10.8848 3.78869,-25.25152 10.37561,-43.7983 15.27765,-43.01725 12.74277,-82.34969 -5.56909,-132.49187 -5.01227,-11.06966 -7.59242,-23.27462 -12.77967,-34.19903 l -5.45969,0.24359 z"
     id="bundle_branches"
     sodipodi:nodetypes="cccccccccccsssscccssssssccssssssssccc"
     inkscape:label="#path3612">
    <title
       id="title2841">Bundle branches</title>
  </path>
  <path
     style="fill:#ff5555;fill-opacity:1;stroke:#000000;stroke-width:0.8525219px;stroke-linecap:butt;stroke-linejoin:miter;stroke-opacity:1"
     d="m 247.82206,627.43551 c 13.05242,13.27965 24.87067,26.87126 31.64014,31.66493 19.86571,14.07084 12.34858,15.56413 10.77597,27.63237 -3.11933,22.8857 6.91984,-16.04194 6.91984,-16.04194 2.36879,-2.36805 10.52292,4.27644 26.40278,5.54675 0,0 4.57673,-1.76102 8.0621,-5.1638 12.40935,-9.92822 18.04325,-1.44373 27.97777,-9.72258 0,0 -11.43092,2.26843 -23.02164,3.08992 0,0 4.18585,-6.94211 11.83057,-12.51949 -6.04062,3.41556 -13.27777,7.82806 -18.43863,12.51949 0,0 -0.28775,10.50161 -14.35977,8.01795 -14.06877,-2.48045 -38.24819,-24.00135 -38.24819,-24.00135 0,0 26.21059,-9.3355 35.31693,-11.82555 9.10318,-2.48365 59.14734,10.74208 77.52872,-8.60533 0,0 -15.43191,14.22026 -68.64897,5.44207 0,0 23.60583,-2.19054 39.33089,-8.81042 15.71857,-6.62947 43.85297,-26.46567 49.64036,-43.84485 0,0 -31.34499,39.26189 -66.93576,45.04749 0,0 11.52421,-25.09767 18.12136,-24.37701 7.44367,-5.7856 47.16767,-44.68126 48.8144,-49.65176 0,0 -44.10318,42.76441 -53.20952,46.89744 -9.10309,4.13303 6.04714,-28.67759 6.04714,-28.67759 0,0 82.06867,-54.48923 87.42895,-64.52814 2.55975,-4.79399 6.60807,-14.09109 6.60807,-14.09109 0,0 -20.53288,24.10631 -93.03911,72.22493 0,0 19.35684,-25.7432 32.39446,-46.41607 31.50268,-40.83305 63.96563,-55.53581 63.96563,-55.53581 l 12.97646,-21.05957 c 0,0 -66.76137,55.51303 -76.69904,68.74959 0,0 28.58818,-48.46365 32.47146,-87.46786 0,0 32.22633,-53.67527 24.71872,-70.86267 0,0 -15.36188,41.03464 -28.68893,68.9174 0,0 1.95884,-48.64785 -0.25703,-60.66656 2.34593,-10.18563 32.19092,-52.88459 27.04437,-54.94257 -8.50305,11.38802 -10.84896,29.92633 -27.41891,37.85817 0,0 6.69667,-29.8564 5.81742,-37.95623 -0.86647,-8.09984 -6.50547,-40.95532 -6.50547,-40.95532 l -6.54661,-14.94746 c 0,0 6.73494,26.94814 7.48323,48.92383 0,0 -7.32216,1.10278 -15.02801,-10.06886 -7.7027,-11.17165 -16.67486,-31.6338 -16.67486,-31.6338 0,0 12.52235,33.7701 17.0212,38.69266 4.50201,4.91936 11.66738,6.02029 15.10144,8.85875 3.42766,2.84166 -5.32267,27.97044 -4.44393,42.56025 2.58314,17.98819 -0.63754,41.70313 0.34739,56.14049 1.35025,19.7925 0.12719,31.40964 -5.75411,51.73738 -5.62868,28.59513 -19.41474,41.38857 -21.8928,61.2546 0,0 -35.40735,48.5813 -36.23869,51.05856 0,0 -9.40202,36.51339 -12.81769,47.64198 -8.16537,16.67494 -18.73644,12.91045 -34.9667,19.23626 0,0 -34.40934,11.23849 -39.00727,10.47773 -8.67356,0.57517 -7.65754,-5.46857 -21.47777,-19.99141 l -1.46836,4.1741 z m 109.46041,19.63819 c -3.31333,1.23943 -6.25805,2.93301 -8.81968,4.7947 4.55667,-2.57337 8.81968,-4.7947 8.81968,-4.7947 z"
     id="purkinje_fibres3"
     sodipodi:nodetypes="ccccccccccccccccccccccscccccccccccccccccccccsccccccccccc"
     inkscape:label="#path2911">
    <title
       id="title3698">Purkinje fibres</title>
  </path>
  <path
     style="fill:#ff5555;fill-opacity:1;stroke:#000000;stroke-width:0.8525219px;stroke-linecap:butt;stroke-linejoin:miter;stroke-opacity:1"
     d="m 107.7584,569.85584 c -9.234969,-6.04285 -17.666509,-22.19825 -36.885119,-47.08447 -14.888599,-19.2808 -11.54823,-40.9728 -23.29986,-53.77148 -6.414586,-12.80441 -6.132401,-18.38163 -11.284788,-29.48521 -3.422455,-12.31003 3.41584,-29.97465 -2.944995,-39.33362 -6.179252,-9.40007 -6.17711,-25.07033 -8.779111,-28.97615 -0.18638,-1.66538 0.735088,-45.26887 0.137914,-46.57899 -0.990124,-2.1722 -4.090568,41.07541 -4.090568,41.07541 0,0 5.109837,12.47375 1.495501,15.77101 -2.68444,2.44894 -18.4140715,-5.35055 -17.6468585,-2.20142 0.437387,1.79533 20.5859205,6.28348 21.0624875,8.04459 1.0978,4.0568 2.273704,7.82507 3.408632,10.39366 3.91407,8.86079 -0.478048,27.04327 0.991116,32.45668 1.467296,5.41918 2.946607,10.82245 2.946607,10.82245 0,0 -23.3300055,-29.84969 -18.120695,-21.16954 1.12505,1.87293 13.222723,25.12392 19.097631,30.04302 5.871105,4.92668 5.408984,17.76741 9.328775,24.65644 3.910285,6.89849 8.171674,19.79568 11.603518,27.18278 3.42434,7.37955 8.263434,19.08969 8.263434,19.08969 0,0 -13.15461,-10.14187 -27.151142,-20.133 8.223942,6.5745 14.349155,18.35565 26.662662,23.57146 0,0 5.86733,2.95551 9.78517,8.85761 3.91403,5.91349 6.23982,8.55657 6.71254,11.88412 0,0 -1.25565,-0.19028 -2.9669,0.40106 -3.05368,1.05536 -2.94756,1.75782 -5.35842,1.82053 -12.63471,0.33846 -10.47525,1.59366 -10.47525,1.59366 0,0 6.58826,0.70386 10.67467,1.09333 1.10624,-0.25686 6.10564,-2.07905 6.10564,-2.07905 0,0 4.12888,-0.4486 -3.69738,9.3876 -1.30507,3.49273 -2.89486,5.7908 -2.89486,5.7908 0,0 0.87813,0.89756 4.9151,-3.16205 5.19985,-5.22901 2.53826,-7.26102 8.89724,-6.76469 0,0 -1.34285,0.70777 -4.771,15.96312 -1.87949,9.25169 0.38218,12.07579 0.38218,12.07579 0,0 0.58553,-3.36184 4.98932,-10.74138 2.8079,-4.70614 0.85169,-6.19301 4.59936,-11.11779 2.13668,-2.81034 3.73258,4.85255 7.09071,5.229 5.672589,0.63512 -3.32788,8.30376 1.07402,28.4934 2.946809,5.48697 0.88596,8.94681 4.343289,13.93261 0,0 0.24073,-1.44139 -0.24898,-13.74569 -0.29684,-7.46319 -1.37147,-16.63646 1.92237,-18.69767 2.1367,-1.33859 5.49221,2.41517 8.25166,5.17737 0.64604,0.64668 22.70066,24.43606 22.7326,24.2136 l 1.69578,-2.31163 c -0.062,-0.27294 -23.30578,-27.0805 -28.554,-31.66696 z"
     id="purkinje_fibres1"
     sodipodi:nodetypes="ccccccscsssccccccccccccsccccccscccscsccsssccc"
     inkscape:label="#path2920">
    <title
       id="title3694">Purkinje fibres</title>
  </path>
  <path
     style="fill:#ff5555;fill-opacity:1;stroke:#000000;stroke-width:0.8525219px;stroke-linecap:butt;stroke-linejoin:miter;stroke-opacity:1"
     d="m 182.3684,604.7459 c -9.35378,0.15373 -12.63665,4.2567 -24.05795,13.77428 -0.28667,0.23888 -23.88152,-5.82109 -23.626,-14.47864 0.0108,-0.36606 -3.36671,-3.98856 -3.35062,-3.61293 0.86315,20.14651 25.25167,20.59465 24.40285,20.67717 -7.04928,0.68524 -22.9508,16.04605 -22.6318,16.46612 0.94827,1.24872 16.30011,-11.18087 20.2207,-12.16645 4.95452,-1.24548 17.88239,-13.77598 14.72818,-8.81005 -7.60654,11.97558 -4.27355,50.28928 -3.14192,48.62378 3.60097,-5.29976 -1.34656,-59.82861 17.35157,-57.56372 19.15745,2.32053 24.23899,10.16717 25.85253,12.55473 1.40807,2.08117 3.64485,5.10522 4.94767,8.53166 0.90599,2.38275 1.71259,3.29156 1.09771,5.55514 -1.89541,6.97765 -2.0161,5.83954 -3.46343,8.0588 -1.32404,6.20402 -12.49194,16.2441 -13.69729,26.1332 -1.20377,9.89313 -1.2038,11.46155 -1.2038,11.46155 0,0 3.11122,-18.02212 11.96034,-28.43603 8.84436,-10.41191 8.51154,-18.53324 8.51154,-18.53324 0,0 6.03192,15.09909 6.03192,24.98416 0,9.89111 -3.56477,16.17284 -7.18397,20.86202 -3.61915,4.68315 -5.7342,13.55611 -5.7342,13.55611 0,0 1.78215,-7.76971 10.22581,-14.528 0,0 0.62857,6.64502 2.23931,8.7302 1.60771,2.08522 -3.27226,-4.25081 0.75079,-15.1815 4.01829,-10.92869 4.11617,-23.85878 -1.51448,-33.74788 0,0 2.01982,3.11942 14.88567,3.63619 12.86896,0.52682 9.20632,-0.14142 15.06688,1.03891 0,0 12.24923,-0.20912 -10.64001,-3.11674 -22.89392,-2.90559 -28.08788,-16.68846 -30.9009,-20.33001 -7.73726,-11.16799 -21.73761,-14.2982 -27.1271,-14.13883 z"
     id="purkinje_fibres2"
     sodipodi:nodetypes="cssssssssscsscccccscccsccccccc"
     inkscape:label="#path2909">
    <title
       id="title3696">Purkinje fibres</title>
  </path>
</svg>
