<?xml version="1.0" encoding="UTF-8" standalone="no"?>
<!-- Created with Inkscape (http://www.inkscape.org/) -->

<svg
   xmlns:dc="http://purl.org/dc/elements/1.1/"
   xmlns:cc="http://creativecommons.org/ns#"
   xmlns:rdf="http://www.w3.org/1999/02/22-rdf-syntax-ns#"
   xmlns:svg="http://www.w3.org/2000/svg"
   xmlns="http://www.w3.org/2000/svg"
   xmlns:sodipodi="http://sodipodi.sourceforge.net/DTD/sodipodi-0.dtd"
   xmlns:inkscape="http://www.inkscape.org/namespaces/inkscape"
   id="svg2876"
   version="1.1"
   inkscape:version="0.47pre1 r21720"
   width="530"
   height="470"
   sodipodi:docname="Heart.svg"
   inkscape:output_extension="org.inkscape.output.svg.inkscape">
  <metadata
     id="metadata2882">
    <rdf:RDF>
      <cc:Work
         rdf:about="">
        <dc:format>image/svg+xml</dc:format>
        <dc:type
           rdf:resource="http://purl.org/dc/dcmitype/StillImage" />
        <dc:title></dc:title>
      </cc:Work>
    </rdf:RDF>
  </metadata>
  <defs
     id="defs2880">
    <inkscape:perspective
       sodipodi:type="inkscape:persp3d"
       inkscape:vp_x="0 : 0.5 : 1"
       inkscape:vp_y="0 : 1000 : 0"
       inkscape:vp_z="1 : 0.5 : 1"
       inkscape:persp3d-origin="0.5 : 0.33333333 : 1"
       id="perspective2884" />
  </defs>
  <sodipodi:namedview
     pagecolor="#ffffff"
     bordercolor="#666666"
     borderopacity="1"
     objecttolerance="10"
     gridtolerance="10"
     guidetolerance="10"
     inkscape:pageopacity="0"
     inkscape:pageshadow="2"
     inkscape:window-width="1680"
     inkscape:window-height="975"
     id="namedview2878"
     showgrid="false"
     inkscape:zoom="1.1942822"
     inkscape:cx="440.5012"
     inkscape:cy="209.07652"
     inkscape:window-x="0"
     inkscape:window-y="25"
     inkscape:window-maximized="1"
     inkscape:current-layer="svg2876" />
  <path
     style="fill:#000000;stroke:none"
     d="M 191.36672,458.33432 C 167.15291,452.14094 148.02262,441.13001 118.93106,416.64216 97.182489,398.3353 92.206699,391.53895 62.959279,340.19129 40.397619,300.58133 26.340999,271.09998 15.657599,240.98415 1.7054391,201.65385 0.45706905,195.52722 0.45706905,166.38408 l 0,-31.7507 L 17.203529,109.8162 c 9.21056,-13.649453 16.75487,-26.015645 16.76514,-27.480418 0.0104,-1.464772 1.64636,-8.525415 3.63574,-15.690318 l 3.61706,-13.027091 25.39634,2.146775 c 13.96799,1.18073 25.9476,2.698036 26.62136,3.371793 0.67376,0.673757 3.37635,21.395305 6.00576,46.047889 5.972961,56.00067 14.070831,102.48366 19.765151,113.45488 2.39838,4.62094 6.75254,12.92325 9.67593,18.44958 12.16494,22.99649 22.32443,48.13321 27.2766,67.48813 7.90906,30.9115 23.89888,67.94515 33.79709,78.27665 12.91282,13.47809 38.52887,15.51911 56.87034,4.53129 26.96262,-16.15253 34.74182,-27.78526 50.15737,-75.00354 3.29576,-10.09501 7.57598,-20.34865 9.5116,-22.78587 4.69145,-5.90721 3.07323,-32.93734 -2.62293,-43.81256 -2.50456,-4.78175 -11.51792,-19.24437 -20.02968,-32.13914 -8.51177,-12.89477 -18.3091,-32.60455 -21.77185,-43.7995 -5.7279,-18.51812 -5.88049,-22.33621 -1.69133,-42.321 2.53252,-12.0816 7.67418,-30.045093 11.42592,-39.918871 3.75174,-9.873774 7.7877,-27.384566 8.96881,-38.912876 1.94638,-18.997716 3.16039,-21.586577 12.9641,-27.645599 5.94914,-3.676772 12.89949,-6.612173 15.44523,-6.523113 2.54573,0.08906 12.16451,16.279682 21.37506,35.979158 9.21056,19.699478 23.32531,45.516498 31.36609,57.371141 8.04081,11.85465 17.39957,29.6339 20.79726,39.50945 3.39769,9.87555 9.0598,22.042 12.58249,27.03656 15.579,22.08837 24.95554,46.05707 25.81728,65.99516 0.47828,11.06577 1.02097,21.30299 1.20601,22.74939 0.68232,5.33386 14.18948,-5.00717 17.92287,-13.72167 2.12154,-4.95214 6.48078,-12.88147 9.68722,-17.62073 3.20642,-4.73927 9.72735,-18.97155 14.49095,-31.6273 10.38368,-27.58684 9.45144,-48.45991 -4.02987,-90.22969 -10.0472,-31.129718 -28.9773,-73.83986 -34.14235,-77.03204 -8.61933,-5.327028 -1.84814,-11.177386 22.3646,-19.323227 14.27636,-4.8029622 31.68631,-9.7952542 38.68881,-11.0939812 14.71137,-2.7284659 17.8467,-0.0024 30.95955,26.9176662 7.69393,15.795268 8.15911,20.089868 8.18996,75.609772 0.0301,53.19621 -0.73072,61.09633 -7.8971,82.05765 -13.34793,39.04217 -24.33016,53.91183 -65.36723,88.50555 -27.61561,23.2796 -39.90031,36.10415 -45.77742,47.78904 -12.93992,25.72729 -32.48649,52.45611 -59.67976,81.60869 -20.74576,22.2405 -30.50096,29.76237 -53.11457,40.9547 -24.04962,11.90309 -31.45425,13.93303 -56.17032,15.39894 -18.7574,1.1125 -34.75294,0.0811 -46.89009,-3.0232 z"
     id="ventricles" />
</svg>
