<?xml version="1.0" encoding="UTF-8" standalone="no"?>
<!-- Created with Inkscape (http://www.inkscape.org/) -->

<svg
   xmlns:dc="http://purl.org/dc/elements/1.1/"
   xmlns:cc="http://creativecommons.org/ns#"
   xmlns:rdf="http://www.w3.org/1999/02/22-rdf-syntax-ns#"
   xmlns:svg="http://www.w3.org/2000/svg"
   xmlns="http://www.w3.org/2000/svg"
   xmlns:sodipodi="http://sodipodi.sourceforge.net/DTD/sodipodi-0.dtd"
   xmlns:inkscape="http://www.inkscape.org/namespaces/inkscape"
   id="svg2876"
   version="1.1"
   inkscape:version="0.47pre1 r21720"
   width="564.12152"
   height="829.48053"
   sodipodi:docname="heart4.svg"
   inkscape:output_extension="org.inkscape.output.svg.inkscape">
  <metadata
     id="metadata2882">
    <rdf:RDF>
      <cc:Work
         rdf:about="">
        <dc:format>image/svg+xml</dc:format>
        <dc:type
           rdf:resource="http://purl.org/dc/dcmitype/StillImage" />
        <dc:title />
      </cc:Work>
    </rdf:RDF>
  </metadata>
  <defs
     id="defs2880">
    <inkscape:perspective
       sodipodi:type="inkscape:persp3d"
       inkscape:vp_x="0 : 0.5 : 1"
       inkscape:vp_y="0 : 1000 : 0"
       inkscape:vp_z="1 : 0.5 : 1"
       inkscape:persp3d-origin="0.5 : 0.33333333 : 1"
       id="perspective2884" />
    <inkscape:perspective
       id="perspective3719"
       inkscape:persp3d-origin="0.5 : 0.33333333 : 1"
       inkscape:vp_z="1 : 0.5 : 1"
       inkscape:vp_y="0 : 1000 : 0"
       inkscape:vp_x="0 : 0.5 : 1"
       sodipodi:type="inkscape:persp3d" />
    <inkscape:perspective
       id="perspective2829"
       inkscape:persp3d-origin="0.5 : 0.33333333 : 1"
       inkscape:vp_z="1 : 0.5 : 1"
       inkscape:vp_y="0 : 1000 : 0"
       inkscape:vp_x="0 : 0.5 : 1"
       sodipodi:type="inkscape:persp3d" />
    <inkscape:perspective
       id="perspective2830"
       inkscape:persp3d-origin="0.5 : 0.33333333 : 1"
       inkscape:vp_z="1 : 0.5 : 1"
       inkscape:vp_y="0 : 1000 : 0"
       inkscape:vp_x="0 : 0.5 : 1"
       sodipodi:type="inkscape:persp3d" />
    <inkscape:perspective
       id="perspective3622"
       inkscape:persp3d-origin="0.5 : 0.33333333 : 1"
       inkscape:vp_z="1 : 0.5 : 1"
       inkscape:vp_y="0 : 1000 : 0"
       inkscape:vp_x="0 : 0.5 : 1"
       sodipodi:type="inkscape:persp3d" />
    <inkscape:perspective
       id="perspective3644"
       inkscape:persp3d-origin="0.5 : 0.33333333 : 1"
       inkscape:vp_z="1 : 0.5 : 1"
       inkscape:vp_y="0 : 1000 : 0"
       inkscape:vp_x="0 : 0.5 : 1"
       sodipodi:type="inkscape:persp3d" />
    <inkscape:perspective
       id="perspective2835"
       inkscape:persp3d-origin="0.5 : 0.33333333 : 1"
       inkscape:vp_z="1 : 0.5 : 1"
       inkscape:vp_y="0 : 1000 : 0"
       inkscape:vp_x="0 : 0.5 : 1"
       sodipodi:type="inkscape:persp3d" />
    <inkscape:perspective
       id="perspective3100"
       inkscape:persp3d-origin="372.04724 : 350.78739 : 1"
       inkscape:vp_z="744.09448 : 526.18109 : 1"
       inkscape:vp_y="0 : 1000 : 0"
       inkscape:vp_x="0 : 526.18109 : 1"
       sodipodi:type="inkscape:persp3d" />
  </defs>
  <sodipodi:namedview
     pagecolor="#ffffff"
     bordercolor="#666666"
     borderopacity="1"
     objecttolerance="10"
     gridtolerance="10"
     guidetolerance="10"
     inkscape:pageopacity="0"
     inkscape:pageshadow="2"
     inkscape:window-width="1920"
     inkscape:window-height="1005"
     id="namedview2878"
     showgrid="false"
     inkscape:zoom="14.032815"
     inkscape:cx="236.42128"
     inkscape:cy="484.10352"
     inkscape:window-x="0"
     inkscape:window-y="25"
     inkscape:window-maximized="1"
     inkscape:current-layer="svg2876"
     showguides="true"
     inkscape:guide-bbox="true" />
  <path
     style="fill:#860000;stroke:#000000;stroke-width:1px;stroke-linecap:butt;stroke-linejoin:miter;stroke-opacity:1;fill-opacity:1"
     d="m 24.049409,357.59244 c 0,0 -20.2382796,20.23827 -22.2335996,56.43913 -1.99531997,36.20086 -4.56074,56.72418 15.9625796,127.70067 20.52333,70.97649 58.14942,123.99507 95.775511,170.45759 37.62609,46.46252 77.81759,84.37365 135.967,109.45771 58.14941,25.08406 145.94362,-22.2336 145.94362,-22.2336 0,0 31.35508,-18.81304 66.98584,-63.85033 35.63077,-45.03729 74.68209,-108.03248 80.66806,-123.42498 5.98597,-15.39249 17.10277,-46.17747 19.95323,-101.47642 2.85046,-55.29895 -5.70092,-105.75211 -18.24295,-157.34546 -12.54203,-51.59335 -53.58868,-72.97181 -53.58868,-72.97181 0,0 -33.92049,-38.76628 -35.91581,13.11212 -1.99532,51.87839 -1.42523,84.94375 0.57009,93.21008 1.99533,8.26634 5.98597,13.11213 7.69625,14.25231 1.71027,1.14018 -3.42056,2.28037 -5.13083,7.12615 -1.71028,4.84579 2.28037,1.99533 -1.42523,7.12616 -3.7056,5.13083 -3.42056,0.28504 -4.56074,7.69624 -1.14019,7.4112 -1.14019,12.54203 1.71028,14.53735 2.85046,1.99533 9.12147,-2.56541 14.2523,-2.56541 5.13083,0 9.40652,0 7.4112,1.71028 -1.99532,1.71027 -9.69157,3.7056 -8.83643,5.98597 0.85514,2.28036 3.99065,0.28504 0.85514,9.69156 -3.13551,9.40653 -3.55555,13.95928 -0.73374,16.88187 2.82182,2.92259 -0.40311,4.3335 0,8.26388 0.40312,3.93038 2.21714,2.4187 3.12415,5.54285 0.90701,3.12415 -1.4109,5.34129 -1.9148,14.4114 -0.50389,9.07011 1.20935,13.40361 2.82181,17.73711 1.61247,4.3335 3.42649,1.81402 3.12415,5.64362 -0.30233,3.82961 -1.31012,5.13973 -1.10857,7.96155 0.20156,2.82181 1.20935,6.75219 0.60468,9.47323 -0.60468,2.72103 -1.61247,6.04674 -5.13973,2.51947 -3.52727,-3.52727 -15.82231,-10.48102 -20.96204,-9.77556 -5.13973,0.70545 -6.44986,2.31791 -8.06232,8.26388 -1.61247,5.94596 -1.9148,6.04674 -2.01558,7.35686 -0.10078,1.31013 -2.82181,4.3335 -3.42649,6.65142 -0.60467,2.31792 0.20156,8.76778 1.41091,11.58959 1.20935,2.82181 0.60467,5.7444 4.63583,10.48102 4.03116,4.73661 6.04674,2.01558 5.94597,7.15531 -0.10078,5.13973 0.10077,7.96154 -3.02338,9.07011 -3.12415,1.10857 -5.03895,4.13194 -5.84518,6.7522 -0.80623,2.62025 1.41091,10.58179 0.30234,13.20205 -1.10857,2.62025 -6.34908,6.04674 -6.7522,6.85297 -0.40311,0.80623 1.41091,8.06232 -3.62804,6.95375 -5.03895,-1.10856 -7.45765,4.73662 -7.55843,9.37245 -0.10078,4.63584 -1.61246,15.4192 -9.87634,16.12465 -8.26388,0.70545 -12.89972,3.22493 -14.31063,6.55064 -1.4109,3.3257 -2.01558,10.38024 -1.61246,12.09348 0.40312,1.71324 -3.62804,7.96154 -4.93817,8.96933 -1.31013,1.00779 -6.95376,2.21714 -9.07011,9.07011 -2.11636,6.85298 0.60467,16.52776 -5.94597,19.14802 -6.55063,2.62025 -7.05453,3.12415 -8.86855,6.14752 -1.81402,3.02337 -10.68258,2.62026 -11.89193,2.82181 -1.20935,0.20156 -1.10857,2.01558 -1.9148,3.42649 -0.80623,1.41091 -1.71324,0.80623 -4.23272,-1.00779 -2.51947,-1.81402 -2.31792,-3.42649 -4.93817,-2.21714 -2.62025,1.20935 -4.83739,3.72883 -5.7444,5.24051 -0.90702,1.51169 -0.30234,3.22493 -3.52727,4.73661 -3.22493,1.51169 -11.08569,2.01559 -11.08569,2.01559 0,0 -5.54285,4.33349 -8.46544,2.92259 -2.92259,-1.41091 -6.7522,-6.7522 -13.70595,-6.55064 -6.95375,0.20156 -6.55064,3.62805 -7.55843,3.22493 -1.00779,-0.40312 -4.73661,-14.61296 -7.25609,-15.62075 -2.51947,-1.00779 -1.10857,-11.69037 -2.82181,-14.71374 -1.71324,-3.02337 -6.55064,-8.1631 -9.77556,-10.38024 -3.22493,-2.21714 -4.03117,-15.72153 -3.62805,-21.56671 0.40312,-5.84518 -1.61246,-12.19426 -3.93038,-17.03166 -2.31792,-4.83739 0.80623,-21.16359 0.30234,-28.62124 -0.5039,-7.45765 -1.41091,-37.99369 -4.13194,-39.4046 -2.72104,-1.4109 3.12415,-5.84518 5.03895,-9.67479 1.9148,-3.8296 2.72103,-20.76047 1.51168,-21.96982 -1.20935,-1.20935 7.75999,-2.62026 9.37245,-11.38803 1.61247,-8.76778 2.72104,-13.10128 3.72883,-13.0005 1.00779,0.10078 0.80623,0.70546 3.02337,2.21714 2.21713,1.51169 14.31062,-0.70545 16.72931,-11.18647 2.4187,-10.48102 2.82182,-34.46643 -3.93038,-53.61444 -6.75219,-19.14802 -21.86905,-64.59936 -23.78385,-68.63052 -1.9148,-4.03116 -6.95375,-26.10177 -4.43427,-45.45134 2.51947,-19.34958 2.01558,-18.24101 4.43427,-21.86905 2.4187,-3.62805 5.48885,-11.0165 -6.06613,-16.35869 -6.17882,-3.4226 -12.80373,-3.61776 -20.63718,0.99458 0.90302,0.29636 4.59189,24.4339 4.63875,24.84154 -0.58012,-0.0277 -11.72662,1.89826 -11.77779,1.71205 -0.0331,-0.12029 1.3177,-21.7569 -0.87645,-21.08289 -10.59924,3.25593 -14.00857,16.3571 -13.95747,27.12662 3.96416,20.9535 -11.89192,64.9017 -14.4114,78.60764 -2.51947,13.70595 -5.54285,17.53555 -3.62804,24.08619 1.9148,6.55064 2.21713,6.2483 -1.00779,13.60517 -3.22493,7.35687 -3.52727,26.60566 -4.8374,39.60616 -1.31012,13.00049 -4.23272,20.96204 -3.42648,32.04773 0.80623,11.08569 3.02337,16.22542 1.71324,21.26437 -1.31013,5.03895 -3.32571,19.65191 -2.62026,32.95474 0.70546,13.30284 -4.33349,15.51997 -5.34128,27.61346 -1.00779,12.09348 -2.52585,37.63237 1.4648,54.16505 3.99064,16.53267 4.56073,26.79433 -5.13083,35.34572 -9.69157,8.55138 -15.3925,9.69157 -21.66351,3.42055 -6.27102,-6.27101 -10.83175,-13.11212 -14.8224,-14.8224 -3.99065,-1.71027 -1.14018,-5.70092 -3.7056,-9.12147 -2.56541,-3.42056 -3.7056,-2.56542 -3.7056,-2.56542 0,0 -0.8108,-4.94683 -4.03573,-5.75306 -3.22492,-0.80623 -3.62804,0.80623 -6.04674,-2.21714 -2.41869,-3.02337 -5.64362,-14.51218 -8.86855,-19.14801 -3.22493,-4.63584 -6.95375,-5.54285 -7.75999,-7.15531 -0.80623,-1.61247 -1.71324,-13.10128 -7.75998,-14.61296 -6.04674,-1.51169 -5.34129,-6.95375 -5.24051,-13.20205 0.10078,-6.2483 0,-6.44986 -2.4187,-9.37245 -2.418691,-2.92259 -2.519471,-3.93039 -5.442071,-4.3335 -2.92259,-0.40312 -1.71324,-8.46544 -3.42648,-12.69816 -1.71325,-4.23272 -6.55064,-10.88413 -10.17868,-12.59738 -3.62805,-1.71324 -5.13973,-6.55063 -9.47323,-7.25609 -4.3335,-0.70545 -1.9148,-5.03895 -3.12415,-9.574 -1.20935,-4.53506 -3.12415,-10.78336 -5.84519,-12.59738 -2.72103,-1.81403 -0.60467,-6.7522 -1.20934,-9.77557 -0.60468,-3.02337 -5.54285,-8.36466 -6.95376,-8.46544 -1.4109,-0.10078 -1.31012,-10.68257 -1.31012,-10.68257 0,0 -2.11636,-8.96934 -3.62805,-10.78336 -1.51169,-1.81402 -0.20156,-7.15531 0.40312,-8.76778 0.60467,-1.61246 -0.20156,-6.34907 -1.10857,-8.26388 -0.90701,-1.9148 -1.31013,-3.22492 -0.5039,-6.2483 0.80623,-3.02337 1.31013,-3.02337 1.00779,-6.75219 -0.30233,-3.72882 -2.82181,-10.38024 -3.52726,-10.5818 -0.70546,-0.20156 -0.90702,-3.93038 -0.70546,-6.75219 0.20156,-2.82182 -0.50389,-13.50439 -1.81402,-14.61296 -1.31013,-1.10857 2.62026,-3.72883 2.21714,-7.15531 -0.40312,-3.42649 -0.70545,-12.69816 -2.11636,-15.82231 -1.41091,-3.12415 -3.42649,-50.59107 -0.90701,-53.00977 2.51947,-2.41869 1.9148,-42.73031 -18.80339,-13.05607 z"
     id="ventricles"
     sodipodi:nodetypes="csssscsssscsssssssssssssssssssssssssssssssssssssssssssssscsssssssssssssssssssscccsscssssssssssssscssssssssssssssscsssssssssssc">
    <title
       id="title2878">Ventricles</title>
    <desc
       id="desc2919">The heart ventricles
        </desc>
  </path>
  <path
     sodipodi:type="arc"
     style="fill:#860000;fill-opacity:1;stroke:#000000;stroke-width:1px;stroke-linecap:butt;stroke-linejoin:miter;stroke-opacity:1"
     id="atrioventricular_node"
     sodipodi:cx="327.80304"
     sodipodi:cy="294.66476"
     sodipodi:rx="9.4065228"
     sodipodi:ry="9.4065228"
     d="m 337.20956,294.66476 a 9.4065228,9.4065228 0 1 1 -18.81304,0 9.4065228,9.4065228 0 1 1 18.81304,0 z"
     transform="translate(-107.93163,-38.268396)">
    <title
       id="title2874">Atrioventricular node</title>
    <desc
       id="desc3697">The atrioventricular node
        </desc>
  </path>
  <path
     style="fill:#860000;fill-opacity:1;stroke:#000000;stroke-width:1px;stroke-linecap:butt;stroke-linejoin:miter;stroke-opacity:1"
     d="m 236.78504,309.24619 c -0.42783,-2.49734 -2.31417,-6.72405 -1.82506,-6.64428 -5.01061,6.42586 -11.46362,14.68957 -22.37296,23.89136 -46.35835,39.10226 -51.99695,41.50322 -55.625,45.9375 -3.62804,4.43427 -31.43759,16.94063 -35.46875,17.34375 -4.03116,0.40312 -10.89023,6.04056 7.25,3.21875 18.14022,-2.82181 68.95012,-45.15008 74.59375,-48.375 4.5236,-2.58492 22.14376,-24.66235 33.44802,-35.37208 z"
     id="atria2"
     sodipodi:nodetypes="ccsssssc"
     inkscape:label="#atria">
    <title
       id="title2852">Atria
        </title>
  </path>
  <path
     style="fill:#860000;fill-opacity:1;stroke:#000000;stroke-width:1px;stroke-linecap:butt;stroke-linejoin:miter;stroke-opacity:1"
     d="m 333.77452,0.555773 c -2.38366,-0.03179 -4.75064,0.04239 -7.09375,0.21875 -37.4898,2.821813 -65.70057,11.275427 -91.5,30.625 -25.79943,19.349573 -49.59688,60.078257 -50,66.124997 -0.40311,6.04674 1.20586,14.89676 -16.53125,9.65625 0,0 -36.68238,-8.06832 -88.281247,11.28125 -51.59886,19.34957 -67.70639,56.84097 -74.1562497,72.5625 -6.4498603,15.72153 -3.6403103,83.4725 10.4687497,112.09375 14.10906,28.62124 43.13127,71.73128 43.9375,73.34375 0.80624,1.61246 12.09724,11.29074 28.625,16.53125 16.527757,5.24051 36.277757,-2.01253 19.749997,-3.625 -16.527758,-1.61246 -39.922007,-10.89085 -45.968747,-20.96875 -6.04674,-10.07791 -34.6532,-62.87858 -38.28125,-83.4375 -3.62804,-20.55892 -19.3464397,-65.70683 0.40625,-92.3125 19.75269,-26.60566 58.83515,-71.74068 93.906247,-74.5625 35.0711,-2.82181 66.14084,-0.42147 76.21875,17.71875 10.0779,18.14023 22.57199,44.35986 27.8125,66.53125 5.24051,22.17139 14.49069,50.37526 17.3125,62.46875 1.86399,7.98852 4.94699,18.47357 2.1577,28.21088 0.0559,0.31333 2.89368,9.84668 3.01369,10.36773 1.61247,-1.00779 7.94021,-8.12825 40.39106,5.57769 51.11323,21.58819 78.21283,19.94673 93.53125,13.09375 15.31841,-6.85297 1.19359,-8.88745 -6.0625,-6.46875 -7.25609,2.41869 -23.36649,12.09966 -62.46875,-3.21875 -39.10226,-15.31842 -54.44073,-19.75993 -58.875,-45.15625 -4.43428,-25.39631 -21.74391,-79.00975 -29,-96.34375 -7.25609,-17.33399 -11.69386,-23.77238 -16.53125,-46.75 -4.8374,-22.97761 -8.86202,-41.937937 12.90625,-62.093747 21.76827,-20.155802 28.18839,-37.084526 68.5,-43.9375 40.31161,-6.852974 52.81321,-13.696547 85.0625,1.21875 32.24929,14.915296 79.82808,41.51934 77.8125,68.124997 -2.01558,26.60566 -5.24991,36.27194 -1.21875,39.09375 4.03116,2.82181 20.95926,73.78474 15.71875,90.3125 -5.24051,16.52776 -1.20075,37.87875 -35.0625,66.5 -33.86176,28.62124 -32.24068,20.97824 -35.0625,26.21875 -2.82181,5.24051 -10.88073,17.72466 12.5,2.40625 23.38074,-15.31841 28.62518,-25.38126 36.6875,-26.1875 8.06232,-0.80623 20.96257,-30.24408 24.1875,-45.5625 3.22493,-15.31841 9.66547,-32.66018 2.8125,-69.34375 -6.85297,-36.68356 -18.5342,-49.56295 -10.875,-69.71875 7.65921,-20.155804 -8.48486,-47.587835 -30.65625,-62.906247 -20.78568,-14.361011 -60.33885,-37.21067 -96.09375,-37.6875 l 5e-5,-5e-5 z"
     id="atria"
     sodipodi:nodetypes="cssscsssssssssssssccssssssssssssssssssssscc">
    <title
       id="title2854">Atria</title>
  </path>
  <path
     style="fill:#860000;fill-opacity:1;stroke:#000000;stroke-width:1px;stroke-linecap:butt;stroke-linejoin:miter;stroke-opacity:1"
     d="m 41.441889,131.93416 c 0,0 21.86905,-17.23322 30.13293,-2.21714 8.26388,15.01607 8.46544,15.51997 -4.93817,24.59008 -13.40361,9.07011 -17.33399,13.0005 -27.81501,0.30234 -10.48102,-12.69816 -2.11636,-16.72932 2.62025,-22.67528 z"
     id="sinoatrial_node">
    <title
       id="title2856">Sinoatrial node</title>
    <desc
       id="desc3740">The sinoatrial node
        </desc>
  </path>
  <path
     style="fill:#860000;fill-opacity:1;stroke:#000000;stroke-width:1px;stroke-linecap:butt;stroke-linejoin:miter;stroke-opacity:1"
     d="m 101.375,137.90625 c -8.700171,-0.0315 -17.376638,1.24408 -24.087615,4.91618 -0.90064,2.08215 -2.166299,3.773 -2.853097,5.5038 7.688027,-4.00689 17.236748,-5.6423 26.909462,-5.48248 46.24194,0.76407 107.86752,45.75641 115.28125,102.5 -2.7168,0.75195 -4.67234,2.26516 -6.25,4.15625 -0.004,-0.003 -0.0284,-0.029 -0.0312,-0.0312 L 66.052273,154.41822 c -1.138567,0.87477 -3.245243,1.93554 -4.175519,2.84171 48.347256,31.87587 94.646016,60.22186 146.466996,95.36507 -0.53671,1.33202 -0.63502,2.25662 -0.5625,4.65625 C 122.10768,261.59817 42.369192,268.0325 54.4375,161.71875 L 50.46875,162.75 C 34.183222,268.42613 116.45387,269.20876 208.75,260.3125 l 3.125,-0.28125 c -1.45211,-3.37258 -1.11273,-6.0399 1.1875,-8.9375 2.22159,-2.94834 7.15734,-3.30837 7.84375,-3.3125 C 216.6121,188.53442 148.35592,138.0761 101.375,137.90625 z"
     id="internodal_fibres"
     sodipodi:nodetypes="cccscccccccccccccc">
    <title
       id="title2879">Internodal fibres</title>
  </path>
  <path
     style="fill:#860000;fill-opacity:1;stroke:#000000;stroke-width:1px;stroke-linecap:butt;stroke-linejoin:miter;stroke-opacity:1"
     d="m 222.52011,265.11793 c 21.22981,47.06835 18.9749,58.78415 17.61904,69.55989 l 8.42876,-0.99556 c -0.51677,-4.47645 -7.59539,-46.18224 -21.00885,-71.18458 l -5.03895,2.62025 z"
     id="bundle_of_his"
     sodipodi:nodetypes="ccccc"
     inkscape:label="#path2836">
    <title
       id="title2876">Bundle of His</title>
  </path>
  <path
     style="fill:#860000;stroke:#000000;stroke-width:1px;stroke-linecap:butt;stroke-linejoin:miter;stroke-opacity:1;fill-opacity:1"
     d="m 240.30328,333.49292 c -0.15777,3.31532 -6.76852,28.40123 -15.26726,52.74623 -6.00414,16.31732 -9.05716,31.97883 -10.22942,47.22239 -2.90626,50.31342 -4.95449,48.28702 -7.38435,69.53974 l -2.83319,84.83333 -6.05435,48.9564 3.09093,54.80921 c -1.77845,14.41409 -6.91253,15.40565 -11.20816,19.75101 -20.85158,8.98293 -33.60281,-8.56551 -45.40799,-20.83816 l -2.36078,3.19517 c 5.25792,6.28972 9.0528,9.79914 15.21209,14.78007 12.68354,10.25699 22.28974,9.65423 27.77418,8.52281 15.40729,-5.90888 16.99175,-12.22162 20.09353,-28.02895 1.1709,-5.96717 -4.21091,-28.77825 -3.44418,-49.77505 0.70633,-19.3427 6.8449,-41.61306 6.69501,-54.02399 -0.42677,-35.33667 1.52975,-29.93177 3.0127,-78.75776 0.81909,-26.9686 7.10906,-46.29453 8.01996,-72.9587 0.63964,-15.39178 3.7188,-30.5396 9.73228,-45.394 4.78085,-14.9191 10.16636,-31.13409 14.94721,-46.56423 15.24577,35.31795 25.8404,73.61577 30.11578,107.22274 3.65162,28.70389 -3.2793,56.31509 -11.13161,78.18701 -6.82174,19.00136 -10.4438,35.66261 -12.92638,50.38712 -0.84594,5.01738 5.12055,19.05141 4.88686,23.6354 -1.71909,33.7206 -1.0692,57.70289 3.93812,76.67999 3.07922,11.66985 9.80367,22.09403 12.95161,29.7069 13.40461,32.4172 18.86019,28.50267 18.12086,28.42843 l 1.41092,-3.62805 c -0.46401,-3.46617 -3.68572,-3.80444 -5.92346,-7.40906 -3.11304,-5.01457 -5.64143,-13.33423 -7.93044,-18.35941 -5.2684,-11.56599 -13.27029,-21.4402 -13.94082,-30.46788 -0.59855,-8.05867 -2.39914,-8.8797 -2.80681,-14.89574 -0.53443,-7.88652 -1.59273,-14.42435 -1.71253,-21.1875 -0.27435,-15.4885 0.95127,-28.73648 0.26164,-37.66944 -0.94054,-12.18325 -4.22269,-17.66061 -3.94778,-21.99198 0.81051,-12.76973 4.44341,-29.62435 12.16862,-51.3829 17.91778,-50.46659 14.94485,-96.61027 -6.53149,-155.43561 -4.3241,-11.84404 -10.29554,-28.95003 -13.3491,-40.97646 l -8.0422,1.14092 z"
     id="bundle_branches"
     sodipodi:nodetypes="ccccccccccscsssscccssssssccssssssssscc"
     inkscape:label="#path3612">
    <title
       id="title2841">Bundle branches</title>
  </path>
  <path
     style="fill:#860000;fill-opacity:1;stroke:#000000;stroke-width:1px;stroke-linecap:butt;stroke-linejoin:miter;stroke-opacity:1"
     d="m 290.64824,736.13768 c 15.308,15.5793 29.16856,31.52458 37.10786,37.14837 23.2987,16.5075 14.48254,18.25939 12.63817,32.4175 -3.65838,26.84884 8.11565,-18.81994 8.11565,-18.81994 2.77814,-2.77813 12.34139,5.01699 30.96545,6.50729 0,0 5.36763,-2.06598 9.45531,-6.05802 14.5538,-11.6475 21.1613,-1.69375 32.8126,-11.40625 0,0 -13.4063,2.66125 -27,3.625 0,0 4.9092,-8.14428 13.875,-14.6875 -7.0845,4.00703 -15.5723,9.18365 -21.625,14.6875 0,0 -0.33748,12.32018 -16.84128,9.40643 -16.5,-2.91 -44.85786,-28.15769 -44.85786,-28.15769 0,0 30.74004,-10.95214 41.42004,-13.87339 10.6763,-2.91375 69.36859,12.60229 90.92645,-10.09553 0,0 -18.09869,16.6828 -80.51218,6.38448 0,0 27.68515,-2.56988 46.12765,-10.33613 18.4349,-7.7775 51.4312,-31.04875 58.2187,-51.4375 0,0 -36.76171,46.06091 -78.50291,52.84841 0,0 13.5157,-29.44387 21.25291,-28.59841 8.73,-6.7875 55.3187,-52.41875 57.25,-58.25 0,0 -51.72464,50.16996 -62.40464,55.01871 -10.6762,4.84875 7.09214,-33.64371 7.09214,-33.64371 0,0 96.25095,-63.92519 102.53754,-75.70255 3.00209,-5.62416 7.75,-16.53125 7.75,-16.53125 0,0 -24.08116,28.28082 -109.11718,84.73219 0,0 22.70189,-30.20117 37.99254,-54.45399 36.94666,-47.90415 75.01952,-65.153 75.01952,-65.153 l 15.21892,-24.70648 c 0,0 -78.29839,65.12628 -89.95339,80.65503 0,0 33.5285,-56.85615 38.08285,-102.61476 0,0 37.79536,-62.97027 28.99036,-83.13402 0,0 -18.01656,48.14064 -33.64666,80.85189 0,0 2.29735,-57.07225 -0.30145,-71.17225 2.75133,-11.94949 37.75383,-62.04267 31.71791,-64.45703 -9.97247,13.3601 -12.72377,35.1087 -32.15717,44.41411 0,0 7.85392,-35.02666 6.82272,-44.52915 -1.0162,-9.5025 -7.62967,-48.04759 -7.62967,-48.04759 l -7.67793,-17.53593 c 0,0 7.8988,31.61477 8.7764,57.39602 0,0 -8.5875,1.29375 -17.625,-11.8125 -9.0338,-13.10625 -19.55644,-37.11185 -19.55644,-37.11185 0,0 14.68634,39.6181 19.96264,45.3931 5.28,5.77125 13.68361,7.06283 17.71111,10.39283 4.02,3.33375 -6.24248,32.81411 -5.21188,49.93045 3.02953,21.10323 -0.74771,48.9249 0.40742,65.8624 1.58359,23.21998 0.14917,36.84888 -6.74847,60.69679 -6.60138,33.54698 -22.7698,48.55587 -25.6761,71.86212 0,0 -41.52609,56.99417 -42.50109,59.90042 0,0 -11.02678,42.83645 -15.03272,55.89219 -9.57642,19.56256 -21.97428,15.14617 -41.00928,22.56742 0,0 -40.35562,13.18467 -45.74812,12.29217 -10.17243,0.67478 -8.98084,-6.41556 -25.18934,-23.45334 l -1.7221,4.89694 z m 128.37624,23.03895 c -3.8859,1.45406 -7.3395,3.44092 -10.3438,5.625 5.3441,-3.019 10.3438,-5.625 10.3438,-5.625 z"
     id="purkinje_fibres3"
     sodipodi:nodetypes="ccccccccccccccccccccccscccccccccccccccccccccsccccccccccc"
     inkscape:label="#path2911">
    <title
       id="title3698">Purkinje fibres</title>
  </path>
  <path
     style="fill:#860000;fill-opacity:1;stroke:#000000;stroke-width:1px;stroke-linecap:butt;stroke-linejoin:miter;stroke-opacity:1"
     d="m 126.38019,668.58688 c -10.83086,-7.0893 -20.71945,-26.04235 -43.259226,-55.23814 -17.4615,-22.61968 -13.54388,-48.0681 -27.32631,-63.08314 -7.52309,-15.02176 -7.19214,-21.56479 -13.23491,-34.59119 -4.01389,-14.44177 4.00613,-35.16539 -3.45392,-46.14506 -7.46672,-10.97298 -10.29417,-25.65641 -10.86632,-30.85848 -0.58101,-5.19315 -4.06562,-9.59215 -4.06562,-9.59215 0,0 5.16482,27.15322 9.7575,37.55068 4.59046,10.39522 -0.56066,31.72637 1.16239,38.07723 1.72086,6.35763 3.45581,12.69659 3.45581,12.69659 0,0 -27.36166,-35.0188 -21.25213,-24.8355 1.31947,2.19727 15.50774,29.47466 22.39789,35.2456 6.88569,5.77984 6.34371,20.84422 10.94088,28.92623 4.58602,8.0931 9.58382,23.22371 13.60872,31.89004 4.0161,8.65748 9.69144,22.39547 9.69144,22.39547 0,0 -15.42786,-11.89814 -31.84313,-23.61945 9.64512,7.71301 16.82883,21.53432 31.27023,27.65336 0,0 6.88126,3.46731 11.47615,10.39149 4.59041,6.93753 7.31812,10.03832 7.87253,13.9421 0,0 -1.47264,-0.22323 -3.47961,0.47051 -3.58139,1.23812 -3.45693,2.06223 -6.28441,2.1358 -14.81811,0.39707 -12.28547,1.86963 -12.28547,1.86963 0,0 7.72677,0.82575 12.51935,1.28266 1.29741,-0.30134 7.16076,-2.43908 7.16076,-2.43908 0,0 4.84239,-0.52628 -4.33633,11.01327 -1.53059,4.09756 -3.39512,6.79359 -3.39512,6.79359 0,0 1.02988,1.05299 5.76448,-3.70962 6.09844,-6.13452 2.9769,-8.51842 10.434778,-7.93614 0,0 -1.574918,0.83033 -5.595478,18.72747 -2.20429,10.85381 0.44822,14.16697 0.44822,14.16697 0,0 0.68672,-3.94402 5.851528,-12.60148 3.293128,-5.52111 0.998868,-7.26546 5.394178,-13.04307 2.50591,-3.29701 4.3776,5.69287 8.31605,6.13451 6.65287,0.74511 -3.90297,9.74173 1.25962,33.42763 3.45605,6.43716 1.03906,10.49614 5.09385,16.34534 0,0 0.28233,-1.691 -0.292,-16.12605 -0.34814,-8.7556 -1.60848,-19.51741 2.25457,-21.93556 2.50595,-1.5704 6.44132,2.83341 9.67763,6.07394 0.75768,0.75866 11.07838,14.32994 11.11583,14.06896 l 2.65745,-3.92418 c -0.0727,-0.3202 -12.45668,-16.22008 -18.61185,-21.60078 z"
     id="purkinje_fibres1"
     sodipodi:nodetypes="cccccccccccccccccccsccccccscccscsccsssccc"
     inkscape:label="#path2920">
    <title
       id="title3694">Purkinje fibres</title>
  </path>
  <path
     style="fill:#860000;fill-opacity:1;stroke:#000000;stroke-width:1px;stroke-linecap:butt;stroke-linejoin:miter;stroke-opacity:1"
     d="m 214.88338,690.68841 c 0,0 3.44736,2.40195 5.57104,7.80238 2.83274,5.48705 20.32514,24.28012 23.62609,29.17035 1.6514,2.44157 4.27471,5.9893 5.80267,10.00909 1.06256,2.79538 2.00855,3.86157 1.28741,6.51713 -2.22296,8.18598 -2.3645,6.85078 -4.06195,9.45436 -1.55285,7.27837 -14.65067,19.0571 -16.06431,30.65871 -1.4118,11.60633 -1.41183,13.44635 -1.41183,13.44635 0,0 3.64887,-21.14302 14.0272,-33.36032 10.37276,-12.21495 9.98242,-21.74266 9.98242,-21.74266 0,0 7.0743,17.71381 7.0743,29.31069 0,11.60397 -4.1808,18.97351 -8.42543,24.47472 -4.24458,5.49413 -6.72513,15.90363 -6.72513,15.90363 0,0 2.09012,-9.11519 11.99293,-17.04382 0,0 0.73719,7.79574 2.62628,10.24201 1.88554,2.44632 -3.83774,-4.98692 0.88054,-17.81049 4.71269,-12.82122 4.82748,-27.99043 -1.7762,-39.59204 0,0 2.36886,3.65961 17.45806,4.26587 15.09285,0.61806 10.79726,-0.16591 17.67059,1.21883 0,0 14.36601,-0.24534 -12.47871,-3.65647 -26.85022,-3.40876 -33.53272,-21.58834 -36.83186,-25.86051 -2.14379,-2.77923 -17.24913,-21.38298 -29.54625,-38.14679 l -9.72145,-2.62008 0.0541,4.03134 c 3.28829,0.73711 8.38129,0.75625 8.98947,3.32772 l 2e-5,0 z"
     id="purkinje_fibres2"
     sodipodi:nodetypes="cccsscccccscccsccccccccccc"
     inkscape:label="#path2909">
    <title
       id="title3696">Purkinje fibres</title>
  </path>
</svg>
