<?xml version="1.0" encoding="UTF-8" standalone="no"?>
<!-- Created with Inkscape (http://www.inkscape.org/) -->

<svg
   xmlns:dc="http://purl.org/dc/elements/1.1/"
   xmlns:cc="http://creativecommons.org/ns#"
   xmlns:rdf="http://www.w3.org/1999/02/22-rdf-syntax-ns#"
   xmlns:svg="http://www.w3.org/2000/svg"
   xmlns="http://www.w3.org/2000/svg"
   xmlns:sodipodi="http://sodipodi.sourceforge.net/DTD/sodipodi-0.dtd"
   xmlns:inkscape="http://www.inkscape.org/namespaces/inkscape"
   id="svg2876"
   version="1.1"
   inkscape:version="0.47pre1 r21720"
   width="480.88806"
   height="707.0531"
   sodipodi:docname="heart4.svg"
   inkscape:output_extension="org.inkscape.output.svg.inkscape">
  <metadata
     id="metadata2882">
    <rdf:RDF>
      <cc:Work
         rdf:about="">
        <dc:format>image/svg+xml</dc:format>
        <dc:type
           rdf:resource="http://purl.org/dc/dcmitype/StillImage" />
        <dc:title></dc:title>
      </cc:Work>
    </rdf:RDF>
  </metadata>
  <defs
     id="defs2880">
    <inkscape:perspective
       sodipodi:type="inkscape:persp3d"
       inkscape:vp_x="0 : 0.5 : 1"
       inkscape:vp_y="0 : 1000 : 0"
       inkscape:vp_z="1 : 0.5 : 1"
       inkscape:persp3d-origin="0.5 : 0.33333333 : 1"
       id="perspective2884" />
    <inkscape:perspective
       id="perspective3719"
       inkscape:persp3d-origin="0.5 : 0.33333333 : 1"
       inkscape:vp_z="1 : 0.5 : 1"
       inkscape:vp_y="0 : 1000 : 0"
       inkscape:vp_x="0 : 0.5 : 1"
       sodipodi:type="inkscape:persp3d" />
    <inkscape:perspective
       id="perspective2829"
       inkscape:persp3d-origin="0.5 : 0.33333333 : 1"
       inkscape:vp_z="1 : 0.5 : 1"
       inkscape:vp_y="0 : 1000 : 0"
       inkscape:vp_x="0 : 0.5 : 1"
       sodipodi:type="inkscape:persp3d" />
    <inkscape:perspective
       id="perspective2830"
       inkscape:persp3d-origin="0.5 : 0.33333333 : 1"
       inkscape:vp_z="1 : 0.5 : 1"
       inkscape:vp_y="0 : 1000 : 0"
       inkscape:vp_x="0 : 0.5 : 1"
       sodipodi:type="inkscape:persp3d" />
    <inkscape:perspective
       id="perspective3622"
       inkscape:persp3d-origin="0.5 : 0.33333333 : 1"
       inkscape:vp_z="1 : 0.5 : 1"
       inkscape:vp_y="0 : 1000 : 0"
       inkscape:vp_x="0 : 0.5 : 1"
       sodipodi:type="inkscape:persp3d" />
    <inkscape:perspective
       id="perspective3644"
       inkscape:persp3d-origin="0.5 : 0.33333333 : 1"
       inkscape:vp_z="1 : 0.5 : 1"
       inkscape:vp_y="0 : 1000 : 0"
       inkscape:vp_x="0 : 0.5 : 1"
       sodipodi:type="inkscape:persp3d" />
    <inkscape:perspective
       id="perspective2835"
       inkscape:persp3d-origin="0.5 : 0.33333333 : 1"
       inkscape:vp_z="1 : 0.5 : 1"
       inkscape:vp_y="0 : 1000 : 0"
       inkscape:vp_x="0 : 0.5 : 1"
       sodipodi:type="inkscape:persp3d" />
    <inkscape:perspective
       id="perspective3100"
       inkscape:persp3d-origin="372.04724 : 350.78739 : 1"
       inkscape:vp_z="744.09448 : 526.18109 : 1"
       inkscape:vp_y="0 : 1000 : 0"
       inkscape:vp_x="0 : 526.18109 : 1"
       sodipodi:type="inkscape:persp3d" />
  </defs>
  <sodipodi:namedview
     pagecolor="#ffffff"
     bordercolor="#666666"
     borderopacity="1"
     objecttolerance="10"
     gridtolerance="10"
     guidetolerance="10"
     inkscape:pageopacity="0"
     inkscape:pageshadow="2"
     inkscape:window-width="1920"
     inkscape:window-height="1006"
     id="namedview2878"
     showgrid="false"
     inkscape:zoom="1.0074671"
     inkscape:cx="250.04524"
     inkscape:cy="366.76002"
     inkscape:window-x="0"
     inkscape:window-y="25"
     inkscape:window-maximized="1"
     inkscape:current-layer="svg2876"
     showguides="true"
     inkscape:guide-bbox="true" />
  <path
     sodipodi:type="arc"
     style="fill:#ff5555;fill-opacity:1;stroke:#000000;stroke-width:1px;stroke-linecap:butt;stroke-linejoin:miter;stroke-opacity:1"
     id="atrioventricular_node"
     sodipodi:cx="327.80304"
     sodipodi:cy="294.66476"
     sodipodi:rx="9.4065228"
     sodipodi:ry="9.4065228"
     d="m 337.20956,294.66476 a 9.4065228,9.4065228 0 1 1 -18.81304,0 9.4065228,9.4065228 0 1 1 18.81304,0 z"
     transform="matrix(0.85245471,0,0,0.85245471,-92.006826,-32.66351)">
    <title
       id="title2874">Atrioventricular node</title>
    <desc
       id="desc3697">The atrioventricular node
        </desc>
  </path>
  <path
     style="fill:#860000;fill-opacity:1;stroke:#000000;stroke-width:0.85245472px;stroke-linecap:butt;stroke-linejoin:miter;stroke-opacity:1"
     d="M 284.52766,0.4323355 C 282.4957,0.405236 280.47795,0.468471 278.48056,0.61880996 246.5222,3.0242778 222.4738,10.2306 200.48095,26.725235 178.48811,43.219869 158.20186,77.939228 157.85822,83.0938 c -0.34363,5.154572 1.02794,12.698813 -14.09214,8.231516 0,0 -31.27007,-6.877878 -75.255768,9.616754 -43.985691,16.49463 -57.71663,48.45435 -63.2148435,61.85624 -5.49821376,13.40189 -3.1031997,71.15653 8.9241345,95.55485 12.027335,24.39831 26.31893,43.89545 27.006204,45.27001 6.276955,-0.58171 6.476727,-3.88803 2.05122,-6.87292 -5.154572,-8.59096 -19.091759,-36.34893 -22.184508,-53.87447 -3.092739,-17.52555 -16.4919631,-56.0121 0.34631,-78.69223 16.838274,-22.68012 50.154301,-61.15568 80.050821,-63.56115 29.89653,-2.405466 56.38207,-0.35929 64.97303,15.10443 8.59096,15.46372 19.2416,37.81477 23.7089,56.71488 4.4673,18.9001 9.51452,44.05561 14.75812,53.25178 6.93285,12.15876 6.8088,22.76212 -5.23032,26.95397 -0.8621,0.30017 -1.69939,1.08292 -1.61161,2.56125 -0.0383,1.94233 2.38998,5.39312 2.49228,5.83729 0.53736,0.72728 0.8375,2.64971 2.1923,1.95259 5.3047,-2.72956 18.96211,-8.97063 40.99728,0.33614 6.54086,-2.76925 1.84886,-5.40886 0.65731,-5.84392 -33.33291,-13.05826 -25.7542,-8.09685 -29.53422,-29.74606 -3.78002,-21.64921 -18.53569,-67.35223 -24.72118,-82.12868 -6.18549,-14.77645 -9.96849,-20.26488 -14.09214,-39.85226 -4.12367,-19.587372 -7.55448,-35.750192 11.00199,-52.932107 18.55646,-17.181908 24.02932,-31.612879 58.39315,-37.454729 34.36382,-5.8418492 45.02087,-11.6756852 72.51192,1.038929 27.49106,12.714615 68.04983,35.393357 66.33164,58.073475 -1.71819,22.68012 -4.47531,30.920182 -1.03893,33.325652 3.43638,2.40546 17.86682,62.89815 13.39952,76.98731 -4.4673,14.08917 -1.02359,32.28992 -29.88919,56.68824 -3.25668,2.73746 9.18669,3.20243 12.04092,2.07786 6.87276,-0.68728 17.86964,-25.78171 20.61875,-38.83997 2.7491,-13.05825 8.23937,-27.84132 2.39753,-59.1124 -5.84185,-31.27108 -15.79957,-42.25017 -9.27045,-59.432079 6.52913,-17.18191 -7.23296,-40.566474 -26.13306,-53.624727 C 348.72434,20.317153 315.00705,0.8388541 284.52762,0.43237812 l 4e-5,-4.262e-5 z"
     id="atria"
     sodipodi:nodetypes="cssscsssccsssssssccsccsssssssssccsssscc">
    <title
       id="title2854">Atria</title>
  </path>
  <path
     style="fill:#ff5555;fill-opacity:1;stroke:#000000;stroke-width:0.85245472px;stroke-linecap:butt;stroke-linejoin:miter;stroke-opacity:1"
     d="m 35.327333,112.42646 c 0,0 18.642375,-14.69054 25.686958,-1.89001 7.044584,12.80052 7.216404,13.23007 -4.209566,20.96193 -11.42597,7.73185 -14.776441,11.08233 -23.711036,0.25773 -8.934595,-10.82461 -1.37887,-16.69088 2.233644,-19.32965 z"
     id="sinoatrial_node"
     sodipodi:nodetypes="csssc">
    <title
       id="title2856">Sinoatrial node</title>
    <desc
       id="desc3740">The sinoatrial node
        </desc>
  </path>
  <path
     style="fill:#ff5555;fill-opacity:1;stroke:#000000;stroke-width:0.85245472px;stroke-linecap:butt;stroke-linejoin:miter;stroke-opacity:1"
     d="m 86.417596,117.51739 c -7.416502,-0.0268 -15.116534,1.06053 -20.837337,4.19082 -0.09314,2.33713 -1.287533,3.42915 -2.1284,4.69174 6.553695,-3.41569 14.693547,-4.8098 22.939098,-4.67356 39.419163,0.65133 91.952173,39.00527 98.272043,87.37661 -2.31595,0.641 -3.98296,1.93094 -5.32784,3.54301 -0.003,-0.003 -0.0242,-0.0247 -0.0266,-0.0266 C 130.05305,189.73807 69.418802,172.54609 56.306571,131.5931 c -0.970577,0.7457 -2.766423,1.64996 -3.559441,2.42243 19.895715,47.80319 75.81058,56.05015 124.85648,81.2944 -0.45752,1.13549 -0.54133,1.92367 -0.47951,3.96924 -73.03283,3.67998 -141.006283,9.16496 -130.718597,-81.4627 l -3.686916,0.8791 c -13.882675,90.08411 56.553062,90.75127 135.231333,83.16761 l 2.66392,-0.23976 c -1.23786,-2.87497 -0.94855,-5.14874 1.01229,-7.61881 1.89381,-2.51333 6.10131,-2.82024 6.68644,-2.82376 C 184.652,160.67562 126.4667,117.66218 86.417596,117.51739 z"
     id="internodal_fibres"
     sodipodi:nodetypes="cccscccccccccccccc">
    <title
       id="title2879">Internodal fibres</title>
  </path>
  <path
     style="fill:#ff5555;fill-opacity:1;stroke:#000000;stroke-width:0.85245472px;stroke-linecap:butt;stroke-linejoin:miter;stroke-opacity:1"
     d="m 188.95935,225.95959 c -5.12607,43.40179 16.17281,54.53685 15.7484,59.29665 l 5.54496,-1.33464 c -1.10299,0.38427 -23.95355,-31.59138 -16.26892,-60.19566 l -5.02444,2.23365 z"
     id="bundle_of_his"
     sodipodi:nodetypes="ccccc"
     inkscape:label="#path2836">
    <title
       id="title2876">Bundle of His</title>
  </path>
  <path
     style="fill:#860000;fill-opacity:1;stroke:#000000;stroke-width:0.85245472px;stroke-linecap:butt;stroke-linejoin:miter;stroke-opacity:1"
     d="m 20.501032,304.78992 c 0,0 -17.2522168,17.25221 -18.9531367,48.1118 -1.70091992,30.8596 -3.8878243,48.3548 13.6073757,108.85904 17.49521,60.50424 49.569747,105.70018 81.644285,145.30737 32.074534,39.6072 66.335974,71.92472 115.905714,93.30774 49.56973,21.38303 124.41032,-18.95313 124.41032,-18.95313 0,0 26.72879,-16.03727 57.1024,-54.42952 30.37361,-38.39225 63.66309,-92.09279 68.76586,-105.2142 5.10277,-13.1214 14.57934,-39.3642 17.00923,-86.50405 2.42989,-47.13985 -4.85978,-90.14889 -15.55129,-134.12988 -10.69151,-43.981 -45.68192,-62.20517 -45.68192,-62.20517 0,0 -28.91568,-33.04649 -30.6166,11.17749 -1.70092,44.22398 -1.21495,72.4107 0.48597,79.45737 1.70093,7.04669 5.10277,11.1775 6.56071,12.14945 1.45792,0.97196 -2.91588,1.94392 -4.3738,6.07472 -1.45794,4.13082 1.94391,1.70093 -1.21495,6.07473 -3.15885,4.3738 -2.91587,0.24299 -3.88782,6.5607 -0.97196,6.31771 -0.97196,10.69151 1.45793,12.39243 2.42989,1.70093 7.77564,-2.1869 12.14944,-2.1869 4.3738,0 8.01864,0 6.31772,1.45794 -1.70092,1.45793 -8.26163,3.15886 -7.53266,5.10277 0.72897,1.9439 3.40185,0.24298 0.72897,8.26162 -2.67288,8.01864 -3.03095,11.89965 -0.62548,14.39102 2.40547,2.49138 -0.34364,3.69412 0,7.04459 0.34364,3.35047 1.89001,2.06183 2.66319,4.72503 0.77319,2.66319 -1.20272,4.5532 -1.63228,12.28506 -0.42954,7.73186 1.03092,11.42597 2.40547,15.12009 1.37456,3.69411 2.92093,1.54637 2.6632,4.81093 -0.25773,3.26456 -1.11682,4.38138 -0.94501,6.78686 0.17182,2.40546 1.03092,5.75593 0.51546,8.0755 -0.51546,2.31955 -1.37456,5.15457 -4.38139,2.14773 -3.00683,-3.00684 -13.4878,-8.93459 -17.86918,-8.33322 -4.38139,0.60136 -5.49822,1.97591 -6.87277,7.04458 -1.37456,5.06866 -1.63228,5.15457 -1.71819,6.27139 -0.0859,1.11683 -2.40546,3.69411 -2.92093,5.67004 -0.51545,1.97592 0.17183,7.47413 1.20274,9.8796 1.03092,2.40546 0.51545,4.89684 3.95184,8.93459 3.43638,4.03775 5.15457,1.71819 5.06867,6.09958 -0.0859,4.38139 0.0859,6.78685 -2.5773,7.73186 -2.66319,0.945 -4.29547,3.52229 -4.98275,5.75594 -0.68727,2.23365 1.20274,9.0205 0.25773,11.25415 -0.945,2.23365 -5.4123,5.15457 -5.75594,5.84185 -0.34364,0.68727 1.20273,6.87276 -3.09274,5.92775 -4.29548,-0.94499 -6.35731,4.03776 -6.44322,7.98959 -0.0859,3.95185 -1.37455,13.14417 -8.41913,13.74554 -7.04459,0.60136 -10.99643,2.7491 -12.19917,5.58412 -1.20273,2.83501 -1.71819,8.84869 -1.37455,10.30914 0.34364,1.46046 -3.09274,6.78686 -4.20956,7.64595 -1.11683,0.8591 -5.92777,1.89001 -7.73186,7.73186 -1.8041,5.84186 0.51545,14.08917 -5.06867,16.32282 -5.58412,2.23364 -6.01367,2.6632 -7.56004,5.24048 -1.54637,2.57729 -9.10641,2.23366 -10.13733,2.40547 -1.03092,0.17182 -0.94501,1.71819 -1.63228,2.92092 -0.68728,1.20274 -1.46046,0.68728 -3.6082,-0.85909 -2.14774,-1.54637 -1.97592,-2.92093 -4.20957,-1.89001 -2.23364,1.03091 -4.12365,3.17866 -4.89684,4.4673 -0.77319,1.28864 -0.25773,2.7491 -3.00684,4.03774 -2.7491,1.28865 -9.45005,1.7182 -9.45005,1.7182 0,0 -4.72502,3.6941 -7.2164,2.49138 -2.49138,-1.20274 -5.75595,-5.75595 -11.6837,-5.58413 -5.92776,0.17182 -5.58413,3.09275 -6.44322,2.74911 -0.8591,-0.34364 -4.03775,-12.45689 -6.18549,-13.31598 -2.14773,-0.8591 -0.94501,-9.96551 -2.40546,-12.5428 -1.46046,-2.57729 -3.70096,-8.11287 -6.45006,-10.00288 -2.74911,-1.89001 -5.31956,-12.2477 -4.97591,-17.23045 0.34364,-4.98275 -0.4026,-10.51654 -2.37852,-14.64021 -1.97593,-4.12365 0.68727,-18.041 0.25773,-24.39831 -0.42955,-6.35731 0.1337,-32.3879 -2.18585,-33.59064 -2.31956,-1.20272 0.3548,-4.86126 1.98708,-8.12582 1.63228,-3.26456 2.31956,-17.69736 1.28864,-18.72828 -1.03092,-1.03092 6.61504,-2.23365 7.98959,-9.70778 1.37456,-7.47414 2.31956,-11.16825 3.17866,-11.08234 0.85909,0.0859 0.68727,0.60137 2.57728,1.89001 1.89001,1.28865 12.19916,-0.60136 14.26098,-9.53596 2.06183,-8.93459 2.40548,-29.38107 -3.35047,-45.70388 -5.75594,-16.32282 -15.62943,-55.18952 -17.26171,-58.6259 -1.63228,-3.43638 -8.9407,-22.12908 -6.79296,-38.62372 2.14774,-16.49464 1.71819,-15.54963 3.78002,-18.64237 2.06183,-3.09275 4.67899,-9.39107 -5.17111,-13.94504 -5.26716,-2.91761 -18.08277,-0.71484 -24.76043,3.21697 0.6053,3.63609 8.65958,13.90343 10.39785,15.96245 10.20151,30.17463 12.94145,33.96477 18.6606,53.84635 4.48259,15.5829 7.8978,34.16514 10.47004,54.23195 2.01745,15.73874 -2.05805,40.88302 -8.88093,54.81383 -7.36483,15.03737 -13.6727,38.83788 -11.32788,54.05683 2.09431,13.59304 2.73857,26.47229 1.67833,36.2602 -0.21012,1.93975 -0.78961,3.84399 -0.53935,5.68111 1.06082,7.78741 0.45303,14.9752 2.498,22.12968 1.60503,5.61529 1.017,11.1034 2.65169,16.10526 0.88452,2.70642 1.39896,5.44504 2.70259,7.64643 14.81342,25.01478 13.49715,26.5104 12.8074,26.67215 -0.47586,0.1116 -9.74943,-1.15984 -11.49886,-3.76785 -0.72716,-1.08403 -8.50684,-26.69186 -13.81285,-33.75118 -1.65429,-2.20093 -3.30874,-22.14396 -1.73743,-65.18364 0.46395,-12.70838 -10.49538,0.0868 0.53266,-40.94207 3.43144,-12.76636 7.36597,-26.74267 11.18324,-39.60173 9.79853,-33.00784 1.67453,-71.6852 -6.63464,-99.01104 -6.38846,-21.00929 -12.58831,-35.30848 -12.65887,-35.16188 -0.32579,0.67694 -6.016,21.61012 -16.52484,51.82437 -1.49336,4.29361 0.35855,11.28565 -8.71029,67.89824 -0.59213,3.6964 0.0343,22.23911 -1.82953,44.81664 -0.85339,10.3381 -1.1072,26.57266 -1.07632,42.52985 0.0219,11.31519 -5.17677,22.82992 -5.45887,33.29324 -0.78782,29.22029 3.79195,45.13889 2.70725,44.66733 -5.03012,-2.18678 -8.79641,3.09571 -8.79233,2.74025 0.0356,-3.10342 -0.61071,-15.80868 -1.34282,-42.41723 -0.53768,-19.54176 5.80874,-45.74265 5.94384,-82.08594 0.77662,-9.61494 0.34259,-21.36971 1.30531,-30.75171 2.18433,-21.28702 4.07363,-28.48213 5.08211,-43.65623 0.53722,-12.30588 0.32256,-24.6047 3.37152,-36.41641 3.26342,-12.64255 7.74185,-24.01439 11.08294,-34.87252 3.06805,-9.97079 5.88234,-20.22137 8.40335,-28.14923 0.0322,-0.10135 -8.6527,-13.55687 -10.52312,-12.98231 -9.03537,2.77554 -2.40435,9.50915 -2.36079,18.68967 3.37927,17.86191 -10.13732,55.32576 -12.28507,67.00946 -2.14773,11.6837 -4.0568,15.252 -2.42451,20.83612 1.63228,5.58412 1.89,5.32639 -0.8591,11.59779 -2.74911,6.2714 -3.00684,22.68012 -4.12366,33.76246 -1.11682,11.08233 -3.60821,17.86919 -2.92092,27.31924 0.68727,9.45005 2.57728,13.83143 1.46046,18.12691 -1.11683,4.29548 -2.83502,16.75236 -2.23366,28.09242 0.60138,11.34007 -3.6941,13.23007 -4.5532,23.53923 -0.85909,10.30914 -2.15317,32.07989 1.24868,46.17325 3.40184,14.09335 3.88782,22.84095 -4.3738,30.13062 -8.26163,7.28967 -13.12141,8.26163 -18.46716,2.91587 -5.34576,-5.34576 -9.23358,-11.17749 -12.63543,-12.63543 -3.40184,-1.45793 -0.97195,-4.85977 -3.15885,-7.77564 -2.1869,-2.91587 -3.15886,-2.1869 -3.15886,-2.1869 0,0 -0.69117,-4.21695 -3.44028,-4.90423 -2.74909,-0.68727 -3.09274,0.68728 -5.15457,-1.89001 -2.06182,-2.57728 -4.81093,-12.37097 -7.56004,-16.32281 -2.7491,-3.95184 -5.927752,-4.72503 -6.615035,-6.09958 -0.687275,-1.37455 -1.46046,-11.16824 -6.615031,-12.45688 -5.154572,-1.28865 -4.553208,-5.92776 -4.467298,-11.25415 0.08591,-5.32639 0,-5.49822 -2.061832,-7.98959 -2.061825,-2.49138 -2.147735,-3.35048 -4.639119,-3.69411 -2.491376,-0.34364 -1.46046,-7.21641 -2.920919,-10.82461 -1.460468,-3.6082 -5.584124,-9.27823 -8.676864,-10.7387 -3.092748,-1.46045 -4.381387,-5.58411 -8.075499,-6.18548 -3.694113,-0.60137 -1.632281,-4.29548 -2.663197,-8.1614 -1.030916,-3.86594 -2.663196,-9.19233 -4.982759,-10.7387 -2.319555,-1.54638 -0.515454,-5.75595 -1.030908,-8.33323 -0.515462,-2.57729 -4.725028,-7.13049 -5.927765,-7.21641 -1.202729,-0.0859 -1.116818,-9.1064 -1.116818,-9.1064 0,0 -1.804101,-7.64596 -3.092749,-9.19233 -1.288647,-1.54637 -0.17182,-6.09958 0.343642,-7.47413 0.515454,-1.37455 -0.171821,-5.4123 -0.945006,-7.04459 -0.773185,-1.63228 -1.116826,-2.7491 -0.429552,-5.32639 0.687275,-2.57729 1.116827,-2.57729 0.859096,-5.75594 -0.257723,-3.17865 -2.405466,-8.84868 -3.00683,-9.0205 -0.601372,-0.17182 -0.773193,-3.35047 -0.601372,-5.75594 0.17182,-2.40547 -0.429544,-11.51188 -1.54637,-12.45688 -1.116827,-0.94501 2.233653,-3.17866 1.890011,-6.09958 -0.343641,-2.92093 -0.601364,-10.82461 -1.804101,-13.4878 -1.202737,-2.6632 -2.920927,-43.1266 -0.773185,-45.18843 2.147734,-2.06183 1.63228,-36.42566 -16.029038,-11.12971 z"
     id="ventricles"
     sodipodi:nodetypes="csssscsssscsssssssssssssssssssssssssssssssssssssssssssssscsssssssssssssssssssscccssssssssssssssssssssssssscscsssscssssssssssssscssssssssssssssscsssssssssssc">
    <title
       id="title2878">Ventricles</title>
    <desc
       id="desc2919">The heart ventricles
        </desc>
  </path>
  <path
     style="fill:#ff5555;fill-opacity:1;stroke:#000000;stroke-width:0.85245472px;stroke-linecap:butt;stroke-linejoin:miter;stroke-opacity:1"
     d="m 204.84766,284.24617 c -0.13449,2.82616 -5.76986,24.21076 -13.01465,44.96377 -5.11825,13.90978 -7.72081,27.26051 -8.72011,40.25495 -2.47746,42.88991 -4.22348,41.1625 -6.29483,59.27948 l -2.41516,72.31657 -5.16106,41.73311 2.63488,46.72237 c -1.51605,12.28736 -5.89262,13.13262 -9.55445,16.83684 -17.77503,7.65755 -28.64488,-7.3017 -38.70826,-17.76358 l -2.01246,2.72373 c 4.48214,5.36171 7.71711,8.35333 12.96762,12.59935 10.81215,8.74361 19.001,8.22979 23.67623,7.2653 13.13402,-5.03705 14.4847,-10.41837 17.12883,-23.89341 0.99814,-5.08674 -3.58961,-24.53215 -2.93601,-42.43097 0.60211,-16.48878 5.83497,-35.47325 5.70719,-46.05301 -0.3638,-30.12291 1.30404,-25.51547 2.56819,-67.13742 0.69824,-22.98951 6.06015,-39.46399 6.83665,-62.19399 0.54527,-13.12079 3.17011,-26.03362 8.29633,-38.69632 4.07546,-12.71786 8.66636,-26.54041 12.74182,-39.6939 12.99633,30.10695 22.02777,62.75411 25.67234,91.40253 3.11284,24.46876 -2.79545,48.00606 -9.48919,66.65088 -5.81523,16.1978 -8.90287,30.40076 -11.01916,42.95274 -0.72112,4.27709 4.36504,16.24046 4.16583,20.14811 -1.46545,28.74528 -0.91144,49.1891 3.35707,65.36622 2.62489,9.94801 8.35718,18.83416 11.04066,25.32378 11.42682,27.6342 16.07746,24.29724 15.44721,24.23395 l 1.20275,-3.09275 c -0.39555,-2.95475 -3.14191,-3.24311 -5.04948,-6.31589 -2.65373,-4.27469 -4.80907,-11.36682 -6.76034,-15.65056 -4.49108,-9.85948 -11.31233,-18.2768 -11.88392,-25.97249 -0.51024,-6.86965 -2.04516,-7.56954 -2.39268,-12.69794 -0.45558,-6.7229 -1.35773,-12.29611 -1.45985,-18.06139 -0.23388,-13.20324 0.81091,-24.49654 0.22303,-32.11149 -0.80177,-10.38567 -3.59965,-15.05487 -3.3653,-18.74716 0.69092,-10.88562 3.7878,-25.25342 10.3732,-43.8016 15.27409,-43.02048 12.7398,-82.35588 -5.5678,-132.50182 -5.0111,-11.07049 -7.59065,-23.27637 -12.7767,-34.2016 l -5.45842,0.24361 z"
     id="bundle_branches"
     sodipodi:nodetypes="ccccccccccscsssscccssssssccssssssssccc"
     inkscape:label="#path3612">
    <title
       id="title2841">Bundle branches</title>
  </path>
  <path
     style="fill:#ff5555;fill-opacity:1;stroke:#000000;stroke-width:0.85245472px;stroke-linecap:butt;stroke-linejoin:miter;stroke-opacity:1"
     d="m 247.76446,627.48259 c 13.04938,13.28065 24.86488,26.87328 31.63277,31.6673 19.86109,14.0719 12.34571,15.56531 10.77347,27.63445 -3.11861,22.88742 6.91822,-16.04314 6.91822,-16.04314 2.36824,-2.36823 10.52048,4.27675 26.39664,5.54717 0,0 4.57567,-1.76116 8.06023,-5.16419 12.40645,-9.92897 18.03905,-1.44385 27.97125,-9.72331 0,0 -11.42826,2.26859 -23.01627,3.09015 0,0 4.18487,-6.94263 11.82781,-12.52043 -6.03922,3.41581 -13.27469,7.82864 -18.43434,12.52043 0,0 -0.28768,10.50239 -14.35643,8.01855 -14.0655,-2.48064 -38.23929,-24.00315 -38.23929,-24.00315 0,0 26.20449,-9.33621 35.30871,-11.82644 9.10106,-2.48384 59.13358,10.74288 77.51068,-8.60598 0,0 -15.42832,14.22133 -68.63299,5.44248 0,0 23.60034,-2.19071 39.32173,-8.81108 15.71492,-6.62997 43.84277,-26.46766 49.62881,-43.84814 0,0 -31.33769,39.26484 -66.92018,45.05087 0,0 11.52153,-25.09956 18.11715,-24.37885 7.44193,-5.78603 47.15668,-44.68461 48.80303,-49.65548 0,0 -44.09291,42.76762 -53.19713,46.90095 -9.10098,4.13334 6.04573,-28.67973 6.04573,-28.67973 0,0 82.04957,-54.49333 87.40861,-64.533 2.55914,-4.79434 6.60652,-14.09214 6.60652,-14.09214 0,0 -20.5281,24.10812 -93.01745,72.23035 0,0 19.35233,-25.74513 32.38692,-46.41956 31.49535,-40.83611 63.95074,-55.53998 63.95074,-55.53998 l 12.97344,-21.06115 c 0,0 -66.74583,55.5172 -76.68119,68.75476 0,0 28.58153,-48.4673 32.4639,-87.47444 0,0 32.21884,-53.6793 24.71297,-70.86798 0,0 -15.3583,41.03771 -28.68225,68.92257 0,0 1.95838,-48.65151 -0.25697,-60.67112 2.34538,-10.1864 32.18343,-52.88857 27.03808,-54.9467 -8.50108,11.38888 -10.84644,29.92858 -27.41253,37.86102 0,0 6.69511,-29.85864 5.81606,-37.95909 -0.86627,-8.10045 -6.50395,-40.95839 -6.50395,-40.95839 l -6.54509,-14.94859 c 0,0 6.73337,26.95016 7.48148,48.92751 0,0 -7.32045,1.10287 -15.02451,-10.06962 -7.70091,-11.17248 -16.67098,-31.63617 -16.67098,-31.63617 0,0 12.51944,33.77264 17.01725,38.69556 4.50096,4.91973 11.66465,6.02074 15.09792,8.85942 3.42686,2.84187 -5.32144,27.97254 -4.4429,42.56345 2.58254,17.98954 -0.63738,41.70626 0.34731,56.14471 1.34994,19.79398 0.12716,31.412 -5.75276,51.74126 -5.62738,28.59728 -19.41023,41.39168 -21.88772,61.2592 0,0 -35.39911,48.58495 -36.23025,51.0624 0,0 -9.39983,36.51613 -12.81471,47.64556 -8.16347,16.6762 -18.73208,12.91142 -34.95856,19.2377 0,0 -34.40133,11.23934 -38.9982,10.47852 -8.67153,0.57522 -7.65576,-5.46897 -21.47277,-19.99291 l -1.46801,4.17442 z m 109.43493,19.63966 c -3.31255,1.23952 -6.25659,2.93323 -8.81762,4.79506 4.5556,-2.57356 8.81762,-4.79506 8.81762,-4.79506 z"
     id="purkinje_fibres3"
     sodipodi:nodetypes="ccccccccccccccccccccccscccccccccccccccccccccsccccccccccc"
     inkscape:label="#path2911">
    <title
       id="title3698">Purkinje fibres</title>
  </path>
  <path
     style="fill:#ff5555;fill-opacity:1;stroke:#000000;stroke-width:0.85245472px;stroke-linecap:butt;stroke-linejoin:miter;stroke-opacity:1"
     d="M 107.73339,569.89859 C 98.50057,563.85529 90.070995,547.69867 70.856857,522.81058 55.971719,503.52833 59.311313,481.8347 47.562415,469.03506 41.149322,456.22969 41.431442,450.65205 36.280254,439.54764 c -3.421659,-12.31096 3.415044,-29.9769 -2.94431,-39.33657 -6.177815,-9.40078 -6.175672,-25.07222 -8.777068,-28.97834 -0.186337,-1.6655 0.734917,-45.27227 0.137882,-46.58249 -0.989894,-2.17236 -4.089617,41.0785 -4.089617,41.0785 0,0 5.108649,12.47469 1.495154,15.7722 -2.683816,2.44912 -18.4097858,-5.35095 -17.6427515,-2.20159 0.4372849,1.79546 20.5811295,6.28395 21.0575855,8.04519 1.097544,4.05711 2.273175,7.82566 3.407839,10.39445 3.913159,8.86145 -0.477937,27.04529 0.990885,32.45911 1.466955,5.41959 2.945921,10.82327 2.945921,10.82327 0,0 -23.3245755,-29.85194 -18.116478,-21.17114 1.124788,1.87308 13.219646,25.12581 19.093187,30.04528 5.869739,4.92705 5.407725,17.76875 9.326604,24.6583 3.909375,6.899 8.169773,19.79716 11.600818,27.18482 3.423543,7.3801 8.261513,19.09112 8.261513,19.09112 0,0 -13.151551,-10.14263 -27.144826,-20.13451 8.222028,6.57499 14.345816,18.35703 26.656455,23.57323 0,0 5.865963,2.95573 9.782898,8.85828 3.913117,5.91393 6.238366,8.55721 6.710975,11.88501 0,0 -1.255358,-0.1903 -2.96621,0.40109 -3.052972,1.05544 -2.946876,1.75795 -5.357174,1.82067 -12.631768,0.33848 -10.472807,1.59377 -10.472807,1.59377 0,0 6.586721,0.70392 10.672179,1.09341 1.105983,-0.25688 6.104223,-2.0792 6.104223,-2.0792 0,0 4.127918,-0.44863 -3.696525,9.38831 -1.304758,3.49299 -2.894186,5.79123 -2.894186,5.79123 0,0 0.877926,0.89763 4.913958,-3.16228 5.198644,-5.2294 2.537673,-7.26157 8.895176,-6.7652 0,0 -1.342546,0.70782 -4.769891,15.96432 -1.879058,9.25238 0.382087,12.0767 0.382087,12.0767 0,0 0.585397,-3.3621 4.988162,-10.74219 2.807243,-4.7065 0.85149,-6.19348 4.598293,-11.11863 2.136175,-2.81055 3.731705,4.85291 7.089056,5.22939 5.671269,0.63517 -3.327105,8.30439 1.073769,28.49554 2.94613,5.48739 0.885751,8.94749 4.34228,13.93366 0,0 0.24067,-1.4415 -0.24892,-13.74672 -0.29677,-7.46376 -1.37116,-16.63771 1.92192,-18.69907 2.13621,-1.3387 5.49093,2.41535 8.24974,5.17775 0.64589,0.64673 9.44382,12.21563 9.47574,11.99316 l 2.26536,-3.34519 c -0.062,-0.27296 -10.61876,-13.82688 -15.86576,-18.41369 z"
     id="purkinje_fibres1"
     sodipodi:nodetypes="ccccccscsssccccccccccccsccccccscccscsccsssccc"
     inkscape:label="#path2920">
    <title
       id="title3694">Purkinje fibres</title>
  </path>
  <path
     style="fill:#ff5555;fill-opacity:1;stroke:#000000;stroke-width:0.85245472px;stroke-linecap:butt;stroke-linejoin:miter;stroke-opacity:1"
     d="m 183.17835,588.73915 c 0,0 2.93872,2.04755 4.74906,6.65117 -0.10069,0.38494 3.60694,6.02466 0.54471,6.075 -14.90781,0.24508 -56.3842,34.85555 -55.39814,36.15441 0.94805,1.24883 16.2963,-11.1817 20.21599,-12.16735 4.95336,-1.24558 17.87822,-13.77702 14.72475,-8.81072 -7.60477,11.97649 -4.27256,50.29306 -3.14119,48.62743 3.60013,-5.30016 -1.34625,-59.8331 17.34753,-57.56804 19.15299,2.3207 24.23335,10.16793 25.84652,12.55567 1.40774,2.08133 3.644,5.10561 4.94651,8.5323 0.90579,2.38293 1.7122,3.29181 1.09746,5.55556 -1.89497,6.97818 -2.01563,5.83998 -3.46263,8.05941 -1.32373,6.20448 -12.48903,16.24532 -13.69409,26.13516 -1.2035,9.89387 -1.20352,11.46241 -1.20352,11.46241 0,0 3.11049,-18.02347 11.95755,-28.43816 8.84231,-10.4127 8.50956,-18.53464 8.50956,-18.53464 0,0 6.03052,15.10022 6.03052,24.98604 0,9.89186 -3.56394,16.17406 -7.1823,20.86359 -3.61831,4.6835 -5.73287,13.55712 -5.73287,13.55712 0,0 1.78174,-7.77028 10.22343,-14.52908 0,0 0.62842,6.64551 2.23879,8.73085 1.60733,2.08538 -3.2715,-4.25113 0.75062,-15.18264 4.01735,-10.92951 4.11521,-23.86057 -1.51413,-33.75042 0,0 2.01934,3.11965 14.8822,3.63646 12.86597,0.52687 9.20418,-0.14143 15.06338,1.039 0,0 12.24637,-0.20914 -10.63753,-3.11698 -22.8886,-2.90581 -28.58513,-18.40308 -31.3975,-22.04491 -1.82748,-2.36917 -14.7041,-18.22802 -25.18684,-32.51841 l -8.28709,-2.2335 0.0461,3.43654 c 2.80311,0.62835 7.14467,0.64466 7.66311,2.83673 l 2e-5,0 z"
     id="purkinje_fibres2"
     sodipodi:nodetypes="ccsssssscsscccccscccsccccccccccc"
     inkscape:label="#path2909">
    <title
       id="title3696">Purkinje fibres</title>
  </path>
</svg>
