<?xml version="1.0" encoding="UTF-8" standalone="no"?>
<!-- Created with Inkscape (http://www.inkscape.org/) -->

<svg
   xmlns:dc="http://purl.org/dc/elements/1.1/"
   xmlns:cc="http://creativecommons.org/ns#"
   xmlns:rdf="http://www.w3.org/1999/02/22-rdf-syntax-ns#"
   xmlns:svg="http://www.w3.org/2000/svg"
   xmlns="http://www.w3.org/2000/svg"
   xmlns:sodipodi="http://sodipodi.sourceforge.net/DTD/sodipodi-0.dtd"
   xmlns:inkscape="http://www.inkscape.org/namespaces/inkscape"
   id="svg2876"
   version="1.1"
   inkscape:version="0.47pre1 r21720"
   width="564.12152"
   height="829.48053"
   sodipodi:docname="heart4.svg"
   inkscape:output_extension="org.inkscape.output.svg.inkscape">
  <metadata
     id="metadata2882">
    <rdf:RDF>
      <cc:Work
         rdf:about="">
        <dc:format>image/svg+xml</dc:format>
        <dc:type
           rdf:resource="http://purl.org/dc/dcmitype/StillImage" />
        <dc:title />
      </cc:Work>
    </rdf:RDF>
  </metadata>
  <defs
     id="defs2880">
    <inkscape:perspective
       sodipodi:type="inkscape:persp3d"
       inkscape:vp_x="0 : 0.5 : 1"
       inkscape:vp_y="0 : 1000 : 0"
       inkscape:vp_z="1 : 0.5 : 1"
       inkscape:persp3d-origin="0.5 : 0.33333333 : 1"
       id="perspective2884" />
    <inkscape:perspective
       id="perspective3719"
       inkscape:persp3d-origin="0.5 : 0.33333333 : 1"
       inkscape:vp_z="1 : 0.5 : 1"
       inkscape:vp_y="0 : 1000 : 0"
       inkscape:vp_x="0 : 0.5 : 1"
       sodipodi:type="inkscape:persp3d" />
    <inkscape:perspective
       id="perspective2829"
       inkscape:persp3d-origin="0.5 : 0.33333333 : 1"
       inkscape:vp_z="1 : 0.5 : 1"
       inkscape:vp_y="0 : 1000 : 0"
       inkscape:vp_x="0 : 0.5 : 1"
       sodipodi:type="inkscape:persp3d" />
    <inkscape:perspective
       id="perspective2830"
       inkscape:persp3d-origin="0.5 : 0.33333333 : 1"
       inkscape:vp_z="1 : 0.5 : 1"
       inkscape:vp_y="0 : 1000 : 0"
       inkscape:vp_x="0 : 0.5 : 1"
       sodipodi:type="inkscape:persp3d" />
    <inkscape:perspective
       id="perspective3622"
       inkscape:persp3d-origin="0.5 : 0.33333333 : 1"
       inkscape:vp_z="1 : 0.5 : 1"
       inkscape:vp_y="0 : 1000 : 0"
       inkscape:vp_x="0 : 0.5 : 1"
       sodipodi:type="inkscape:persp3d" />
    <inkscape:perspective
       id="perspective3644"
       inkscape:persp3d-origin="0.5 : 0.33333333 : 1"
       inkscape:vp_z="1 : 0.5 : 1"
       inkscape:vp_y="0 : 1000 : 0"
       inkscape:vp_x="0 : 0.5 : 1"
       sodipodi:type="inkscape:persp3d" />
  </defs>
  <sodipodi:namedview
     pagecolor="#ffffff"
     bordercolor="#666666"
     borderopacity="1"
     objecttolerance="10"
     gridtolerance="10"
     guidetolerance="10"
     inkscape:pageopacity="0"
     inkscape:pageshadow="2"
     inkscape:window-width="1920"
     inkscape:window-height="1005"
     id="namedview2878"
     showgrid="false"
     inkscape:zoom="4.9613493"
     inkscape:cx="221.97995"
     inkscape:cy="525.30291"
     inkscape:window-x="0"
     inkscape:window-y="25"
     inkscape:window-maximized="1"
     inkscape:current-layer="svg2876" />
  <path
     style="fill:#860000;stroke:#000000;stroke-width:1px;stroke-linecap:butt;stroke-linejoin:miter;stroke-opacity:1;fill-opacity:1"
     d="m 24.049409,357.59244 c 0,0 -20.2382796,20.23827 -22.2335996,56.43913 -1.99531997,36.20086 -4.56074,56.72418 15.9625796,127.70067 20.52333,70.97649 58.14942,123.99507 95.775511,170.45759 37.62609,46.46252 77.81759,84.37365 135.967,109.45771 58.14941,25.08406 145.94362,-22.2336 145.94362,-22.2336 0,0 31.35508,-18.81304 66.98584,-63.85033 35.63077,-45.03729 74.68209,-108.03248 80.66806,-123.42498 5.98597,-15.39249 17.10277,-46.17747 19.95323,-101.47642 2.85046,-55.29895 -5.70092,-105.75211 -18.24295,-157.34546 -12.54203,-51.59335 -53.58868,-72.97181 -53.58868,-72.97181 0,0 -33.92049,-38.76628 -35.91581,13.11212 -1.99532,51.87839 -1.42523,84.94375 0.57009,93.21008 1.99533,8.26634 5.98597,13.11213 7.69625,14.25231 1.71027,1.14018 -3.42056,2.28037 -5.13083,7.12615 -1.71028,4.84579 2.28037,1.99533 -1.42523,7.12616 -3.7056,5.13083 -3.42056,0.28504 -4.56074,7.69624 -1.14019,7.4112 -1.14019,12.54203 1.71028,14.53735 2.85046,1.99533 9.12147,-2.56541 14.2523,-2.56541 5.13083,0 9.40652,0 7.4112,1.71028 -1.99532,1.71027 -9.69157,3.7056 -8.83643,5.98597 0.85514,2.28036 3.99065,0.28504 0.85514,9.69156 -3.13551,9.40653 -3.55555,13.95928 -0.73374,16.88187 2.82182,2.92259 -0.40311,4.3335 0,8.26388 0.40312,3.93038 2.21714,2.4187 3.12415,5.54285 0.90701,3.12415 -1.4109,5.34129 -1.9148,14.4114 -0.50389,9.07011 1.20935,13.40361 2.82181,17.73711 1.61247,4.3335 3.42649,1.81402 3.12415,5.64362 -0.30233,3.82961 -1.31012,5.13973 -1.10857,7.96155 0.20156,2.82181 1.20935,6.75219 0.60468,9.47323 -0.60468,2.72103 -1.61247,6.04674 -5.13973,2.51947 -3.52727,-3.52727 -15.82231,-10.48102 -20.96204,-9.77556 -5.13973,0.70545 -6.44986,2.31791 -8.06232,8.26388 -1.61247,5.94596 -1.9148,6.04674 -2.01558,7.35686 -0.10078,1.31013 -2.82181,4.3335 -3.42649,6.65142 -0.60467,2.31792 0.20156,8.76778 1.41091,11.58959 1.20935,2.82181 0.60467,5.7444 4.63583,10.48102 4.03116,4.73661 6.04674,2.01558 5.94597,7.15531 -0.10078,5.13973 0.10077,7.96154 -3.02338,9.07011 -3.12415,1.10857 -5.03895,4.13194 -5.84518,6.7522 -0.80623,2.62025 1.41091,10.58179 0.30234,13.20205 -1.10857,2.62025 -6.34908,6.04674 -6.7522,6.85297 -0.40311,0.80623 1.41091,8.06232 -3.62804,6.95375 -5.03895,-1.10856 -7.45765,4.73662 -7.55843,9.37245 -0.10078,4.63584 -1.61246,15.4192 -9.87634,16.12465 -8.26388,0.70545 -12.89972,3.22493 -14.31063,6.55064 -1.4109,3.3257 -2.01558,10.38024 -1.61246,12.09348 0.40312,1.71324 -3.62804,7.96154 -4.93817,8.96933 -1.31013,1.00779 -6.95376,2.21714 -9.07011,9.07011 -2.11636,6.85298 0.60467,16.52776 -5.94597,19.14802 -6.55063,2.62025 -7.05453,3.12415 -8.86855,6.14752 -1.81402,3.02337 -10.68258,2.62026 -11.89193,2.82181 -1.20935,0.20156 -1.10857,2.01558 -1.9148,3.42649 -0.80623,1.41091 -1.71324,0.80623 -4.23272,-1.00779 -2.51947,-1.81402 -2.31792,-3.42649 -4.93817,-2.21714 -2.62025,1.20935 -4.83739,3.72883 -5.7444,5.24051 -0.90702,1.51169 -0.30234,3.22493 -3.52727,4.73661 -3.22493,1.51169 -11.08569,2.01559 -11.08569,2.01559 0,0 -5.54285,4.33349 -8.46544,2.92259 -2.92259,-1.41091 -6.7522,-6.7522 -13.70595,-6.55064 -6.95375,0.20156 -6.55064,3.62805 -7.55843,3.22493 -1.00779,-0.40312 -4.73661,-14.61296 -7.25609,-15.62075 -2.51947,-1.00779 -1.10857,-11.69037 -2.82181,-14.71374 -1.71324,-3.02337 -6.55064,-8.1631 -9.77556,-10.38024 -3.22493,-2.21714 -4.03117,-15.72153 -3.62805,-21.56671 0.40312,-5.84518 -1.61246,-12.19426 -3.93038,-17.03166 -2.31792,-4.83739 0.80623,-21.16359 0.30234,-28.62124 -0.5039,-7.45765 -1.41091,-37.99369 -4.13194,-39.4046 -2.72104,-1.4109 3.12415,-5.84518 5.03895,-9.67479 1.9148,-3.8296 2.72103,-20.76047 1.51168,-21.96982 -1.20935,-1.20935 7.75999,-2.62026 9.37245,-11.38803 1.61247,-8.76778 2.72104,-13.10128 3.72883,-13.0005 1.00779,0.10078 0.80623,0.70546 3.02337,2.21714 2.21713,1.51169 14.31062,-0.70545 16.72931,-11.18647 2.4187,-10.48102 2.82182,-34.46643 -3.93038,-53.61444 -6.75219,-19.14802 -21.86905,-64.59936 -23.78385,-68.63052 -1.9148,-4.03116 -6.95375,-26.10177 -4.43427,-45.45134 2.51947,-19.34958 2.01558,-18.24101 4.43427,-21.86905 2.4187,-3.62805 6.41525,-12.79804 -5.13973,-18.14023 -15.02479,-8.3226 -43.64283,12.97275 -43.53654,35.37344 3.96416,20.9535 -11.89192,64.9017 -14.4114,78.60764 -2.51947,13.70595 -5.54285,17.53555 -3.62804,24.08619 1.9148,6.55064 2.21713,6.2483 -1.00779,13.60517 -3.22493,7.35687 -3.52727,26.60566 -4.8374,39.60616 -1.31012,13.00049 -4.23272,20.96204 -3.42648,32.04773 0.80623,11.08569 3.02337,16.22542 1.71324,21.26437 -1.31013,5.03895 -3.32571,19.65191 -2.62026,32.95474 0.70546,13.30284 -4.33349,15.51997 -5.34128,27.61346 -1.00779,12.09348 -2.52585,37.63237 1.4648,54.16505 3.99064,16.53267 4.56073,26.79433 -5.13083,35.34572 -9.69157,8.55138 -15.3925,9.69157 -21.66351,3.42055 -6.27102,-6.27101 -10.83175,-13.11212 -14.8224,-14.8224 -3.99065,-1.71027 -1.14018,-5.70092 -3.7056,-9.12147 -2.56541,-3.42056 -3.7056,-2.56542 -3.7056,-2.56542 0,0 -0.8108,-4.94683 -4.03573,-5.75306 -3.22492,-0.80623 -3.62804,0.80623 -6.04674,-2.21714 -2.41869,-3.02337 -5.64362,-14.51218 -8.86855,-19.14801 -3.22493,-4.63584 -6.95375,-5.54285 -7.75999,-7.15531 -0.80623,-1.61247 -1.71324,-13.10128 -7.75998,-14.61296 -6.04674,-1.51169 -5.34129,-6.95375 -5.24051,-13.20205 0.10078,-6.2483 0,-6.44986 -2.4187,-9.37245 -2.418691,-2.92259 -2.519471,-3.93039 -5.442071,-4.3335 -2.92259,-0.40312 -1.71324,-8.46544 -3.42648,-12.69816 -1.71325,-4.23272 -6.55064,-10.88413 -10.17868,-12.59738 -3.62805,-1.71324 -5.13973,-6.55063 -9.47323,-7.25609 -4.3335,-0.70545 -1.9148,-5.03895 -3.12415,-9.574 -1.20935,-4.53506 -3.12415,-10.78336 -5.84519,-12.59738 -2.72103,-1.81403 -0.60467,-6.7522 -1.20934,-9.77557 -0.60468,-3.02337 -5.54285,-8.36466 -6.95376,-8.46544 -1.4109,-0.10078 -1.31012,-10.68257 -1.31012,-10.68257 0,0 -2.11636,-8.96934 -3.62805,-10.78336 -1.51169,-1.81402 -0.20156,-7.15531 0.40312,-8.76778 0.60467,-1.61246 -0.20156,-6.34907 -1.10857,-8.26388 -0.90701,-1.9148 -1.31013,-3.22492 -0.5039,-6.2483 0.80623,-3.02337 1.31013,-3.02337 1.00779,-6.75219 -0.30233,-3.72882 -2.82181,-10.38024 -3.52726,-10.5818 -0.70546,-0.20156 -0.90702,-3.93038 -0.70546,-6.75219 0.20156,-2.82182 -0.50389,-13.50439 -1.81402,-14.61296 -1.31013,-1.10857 2.62026,-3.72883 2.21714,-7.15531 -0.40312,-3.42649 -0.70545,-12.69816 -2.11636,-15.82231 -1.41091,-3.12415 -3.42649,-50.59107 -0.90701,-53.00977 2.51947,-2.41869 1.9148,-42.73031 -18.80339,-13.05607 z"
     id="ventricles"
     sodipodi:nodetypes="csssscsssscsssssssssssssssssssssssssssssssssssssssssssssscssssssssssssssssssssccssssssssssssscssssssssssssssscsssssssssssc">
    <desc
       id="desc2919">The heart ventricles</desc>
  </path>
  <path
     sodipodi:type="arc"
     style="fill:#860000;stroke:#000000;stroke-width:1px;stroke-linecap:butt;stroke-linejoin:miter;stroke-opacity:1;fill-opacity:1"
     id="atrioventricular_node"
     sodipodi:cx="327.80304"
     sodipodi:cy="294.66476"
     sodipodi:rx="9.4065228"
     sodipodi:ry="9.4065228"
     d="m 337.20956,294.66476 a 9.4065228,9.4065228 0 1 1 -18.81304,0 9.4065228,9.4065228 0 1 1 18.81304,0 z"
     transform="translate(-107.93163,-38.268396)">
    <desc
       id="desc3697">The atrioventricular node</desc>
  </path>
  <path
     style="fill:#860000;stroke:#000000;stroke-width:1px;stroke-linecap:butt;stroke-linejoin:miter;stroke-opacity:1;fill-opacity:1"
     d="m 168.82658,107.14252 c 0,0 -36.68356,-8.062319 -88.282431,11.28725 -51.59886,19.34957 -67.7235,56.83937 -74.1733596,72.5609 -6.44985997,15.72153 -3.62804,83.44503 10.4810196,112.06628 14.10906,28.62124 43.13342,71.75466 43.93965,73.36713 0.80624,1.61246 12.09349,11.28725 28.62125,16.52776 16.527761,5.24051 36.280451,-2.01558 19.752691,-3.62805 -16.527761,-1.61246 -39.908501,-10.88413 -45.955241,-20.96203 -6.04674,-10.07791 -34.66798,-62.88612 -38.29603,-83.44504 -3.62804,-20.55892 -19.3495696,-65.70792 0.40312,-92.31359 19.75269,-26.60566 58.85495,-71.75466 93.926051,-74.57648 35.0711,-2.82181 66.11104,-0.40311 76.18895,17.73711 10.0779,18.14023 22.5745,44.34277 27.81501,66.51416 5.24051,22.17139 14.51218,50.38951 17.33399,62.483 2.82181,12.09348 18.54334,22.5745 -27.81501,61.67676 -46.35835,39.10226 -52.00198,41.52096 -55.63003,45.95524 -3.62804,4.43427 -31.44305,16.93087 -35.47421,17.33399 -4.03116,0.40312 -10.88414,6.04674 7.25609,3.22493 18.14022,-2.82181 68.93285,-45.14901 74.57648,-48.37393 5.64362,-3.22493 32.84272,-34.93813 41.11784,-40.11006 1.61247,-1.00779 9.07011,-9.27166 41.52096,4.43428 51.11323,21.58819 78.20452,19.95425 93.52294,13.10127 15.31841,-6.85297 1.20935,-8.86855 -6.04674,-6.44985 -7.25609,2.41869 -23.38074,12.09348 -62.483,-3.22493 -39.10226,-15.31842 -54.42068,-19.75269 -58.85495,-45.14901 -4.43428,-25.39631 -21.76827,-79.01075 -29.02436,-96.34475 -7.25609,-17.33399 -11.69037,-23.78385 -16.52776,-46.76147 -4.8374,-22.97761 -8.86856,-41.924069 12.89971,-62.079879 21.76827,-20.155802 28.21813,-37.086678 68.52974,-43.939652 40.31161,-6.852974 52.80821,-13.7059483 85.0575,1.209348 32.24929,14.915296 79.81699,41.520964 77.80141,68.126624 -2.01558,26.605659 -5.24051,36.280449 -1.20935,39.102259 4.03116,2.82181 20.96204,73.77025 15.72153,90.29801 -5.24051,16.52776 -1.20935,37.89291 -35.0711,66.51416 -33.86176,28.62124 -32.24929,20.96203 -35.07111,26.20254 -2.82181,5.24051 -10.88413,17.73711 12.4966,2.4187 23.38074,-15.31841 28.62125,-25.39631 36.68357,-26.20255 8.06232,-0.80623 20.96204,-30.2337 24.18697,-45.55212 3.22493,-15.31841 9.67478,-32.6524 2.82181,-69.33597 C 464.71381,134.1513 453.02344,121.25158 460.68264,101.09578 468.34185,80.939971 452.21721,53.528076 430.04582,38.209664 407.87443,22.891252 364.33789,-2.1019473 326.8481,0.71986566 289.3583,3.5416787 261.14017,12.007117 235.34074,31.35669 c -25.79943,19.349573 -49.58328,60.064301 -49.9864,66.111041 -0.40311,6.046739 1.20935,14.915299 -16.52776,9.674789 z"
     id="atria"
     sodipodi:nodetypes="csssssssssssssssssssssssssssssssssssssssssssc">
    <desc
       id="desc3744">The atria of the heart</desc>
  </path>
  <path
     style="fill:#860000;stroke:#000000;stroke-width:1px;stroke-linecap:butt;stroke-linejoin:miter;stroke-opacity:1;fill-opacity:1"
     d="m 41.441889,131.93416 c 0,0 21.86905,-17.23322 30.13293,-2.21714 8.26388,15.01607 8.46544,15.51997 -4.93817,24.59008 -13.40361,9.07011 -17.33399,13.0005 -27.81501,0.30234 -10.48102,-12.69816 -2.11636,-16.72932 2.62025,-22.67528 z"
     id="sinoatrial_node">
    <desc
       id="desc3740">The sinoatrial node</desc>
  </path>
  <path
     style="fill:#860000;fill-opacity:1;stroke:#000000;stroke-width:1px;stroke-linecap:butt;stroke-linejoin:miter;stroke-opacity:1"
     d="m 50.453167,162.7576 12.15646,-5.08138 147.679743,96.75588 2.06677,-3.18152 -146.300999,-95.89231 8.685932,-6.75273 c 45.011007,-23.78861 135.373707,28.55995 142.117567,98.77844 0.0254,0.265 3.73756,0.53761 3.6687,-0.41252 -5.08942,-70.21846 -99.57625,-127.22861 -142.5265,-103.72718 -0.670021,0.36662 -3.552884,5.24982 -4.316231,5.77539 -6.260183,4.31026 -12.45727,10.25878 -19.047143,12.74099 -12.16582,107.17277 69.002414,100.22548 155.441544,95.91729 l 0.57009,2.56542 C 118.35297,269.13963 34.167639,268.43373 50.453167,162.7576 z"
     id="internodal_fibres"
     inkscape:label="#path3608"
     sodipodi:nodetypes="ccccccsssscccc" />
  <path
     style="fill:#860000;stroke:#000000;stroke-width:1px;stroke-linecap:butt;stroke-linejoin:miter;stroke-opacity:1;fill-opacity:1"
     d="m 222.52011,265.11793 c 21.22981,47.06835 18.68985,59.56803 17.33399,70.34377 l 9.07012,-1.20935 c -0.51677,-4.47645 -7.9517,-46.75233 -21.36516,-71.75467 l -5.03895,2.62025 z"
     id="bundle_of_his"
     sodipodi:nodetypes="ccccc"
     inkscape:label="#path2836" />
  <path
     style="fill:#860000;stroke:#000000;stroke-width:1px;stroke-linecap:butt;stroke-linejoin:miter;stroke-opacity:1;fill-opacity:1"
     d="m 240.05566,335.26014 c 1.51224,3.26925 -6.5209,26.63401 -15.01964,50.97901 -6.00414,16.31732 -9.05716,31.97883 -10.22942,47.22239 -2.90626,50.31342 -4.95449,48.28702 -7.38435,69.53974 l -2.83319,84.83333 -6.05435,48.9564 3.09093,54.80921 c -1.77845,14.41409 -6.91253,15.40565 -11.20816,19.75101 -20.85158,8.98293 -33.60281,-8.56551 -45.40799,-20.83816 l -2.36078,3.19517 c 5.25792,6.28972 9.0528,9.79914 15.21209,14.78007 12.68354,10.25699 22.28974,9.65423 27.77418,8.52281 15.40729,-5.90888 16.99175,-12.22162 20.09353,-28.02895 1.1709,-5.96717 -4.21091,-28.77825 -3.44418,-49.77505 0.70633,-19.3427 6.8449,-41.61306 6.69501,-54.02399 -0.42677,-35.33667 1.52975,-29.93177 3.0127,-78.75776 0.81909,-26.9686 7.10906,-46.29453 8.01996,-72.9587 0.63964,-15.39178 3.7188,-30.5396 9.73228,-45.394 4.78085,-14.9191 10.16636,-31.13409 14.94721,-46.56423 15.24577,35.31795 25.8404,73.61577 30.11578,107.22274 3.65162,28.70389 -3.2793,56.31509 -11.13161,78.18701 -6.82174,19.00136 -10.4438,35.66261 -12.92638,50.38712 -0.84594,5.01738 5.12055,19.05141 4.88686,23.6354 -1.71909,33.7206 -1.0692,57.70289 3.93812,76.67999 3.07922,11.66985 9.80367,22.09403 12.95161,29.7069 13.40461,32.4172 18.86019,28.50267 18.12086,28.42843 l 1.41092,-3.62805 c -0.46401,-3.46617 -3.68572,-3.80444 -5.92346,-7.40906 -3.11304,-5.01457 -5.64143,-13.33423 -7.93044,-18.35941 -5.2684,-11.56599 -13.27029,-21.4402 -13.94082,-30.46788 -0.59855,-8.05867 -2.39914,-8.8797 -2.80681,-14.89574 -0.53443,-7.88652 -1.59273,-14.42435 -1.71253,-21.1875 -0.27435,-15.4885 0.95127,-28.73648 0.26164,-37.66944 -0.94054,-12.18325 -4.22269,-17.66061 -3.94778,-21.99198 0.81051,-12.76973 4.44341,-29.62435 12.16862,-51.3829 17.91778,-50.46659 14.85079,-96.57601 -6.53149,-155.43561 -4.30114,-11.83987 -7.63484,-26.12373 -12.77036,-38.47144 l -8.86856,0.40312 z"
     id="bundle_branches"
     sodipodi:nodetypes="ccccccccccscsssscccssssssccssssssssscc"
     inkscape:label="#path3612" />
  <path
     style="fill:#ffffff;fill-opacity:1;stroke:#000000;stroke-width:1px;stroke-linecap:butt;stroke-linejoin:miter;stroke-opacity:1"
     d="m 220.00063,265.92415 c 21.22981,47.06835 18.99219,58.86258 17.63633,69.63832 l 1.51169,-0.30234 c 1.46256,-2.7258 4.85978,-23.75768 -17.63633,-69.94065 l -1.51169,0.60467 z"
     id="insulator1"
     sodipodi:nodetypes="ccccc"
     inkscape:label="#path2836" />
  <path
     style="fill:#ffffff;fill-opacity:1;stroke:#000000;stroke-width:1px;stroke-linecap:butt;stroke-linejoin:miter;stroke-opacity:1"
     d="m 228.32472,262.14494 c 10.59103,24.30137 20.20981,58.38042 20.25658,72.1578 l 1.71325,-0.40312 c 1.17436,-3.34255 -9.79387,-51.49651 -20.45814,-72.35935 l -1.51169,0.60467 z"
     id="insulator2"
     sodipodi:nodetypes="ccccc"
     inkscape:label="#path2836" />
</svg>
